<svg width="41" height="37" viewBox="0 0 41 37" fill="none" xmlns="http://www.w3.org/2000/svg">
<path d="M1 12.8041L19.9619 1.17303L38.9402 12.8064L39.0266 26.7404L19.9617 26.9016H19.9575H1V12.8041Z" fill="#ECBE72" stroke="#434343" stroke-width="2"/>
<path d="M32.9672 5.24452V18.6457L19.7131 34.8158L6.45898 18.6457V5.24452C6.45898 4.5851 7.00219 4.03262 7.69404 4.03262H31.7321C32.424 4.03262 32.9672 4.5851 32.9672 5.24452Z" fill="white" stroke="#434343" stroke-width="2"/>
<path d="M1.00427 36L1.00037 14.191L19.3957 28.6677L20.0141 29.1544L20.6325 28.6678L39.0328 14.1904V36H1.00427Z" fill="#ECBE72" stroke="#434343" stroke-width="2"/>
<path d="M3.57836 36L20.0099 26.0382L36.4524 36H3.57836Z" fill="#ECBE72" stroke="#434343" stroke-width="2"/>
<path d="M21.0948 8.04059C22.2206 8.04059 23.1959 8.24924 24.0208 8.66656C24.8458 9.08387 25.4766 9.67101 25.9133 10.428C26.3597 11.185 26.5829 12.0584 26.5829 13.0483C26.5829 13.8441 26.4422 14.5963 26.1608 15.3047C25.889 16.0132 25.4911 16.5858 24.9671 17.0225C24.443 17.4592 23.8219 17.6776 23.1037 17.6776C22.5991 17.6776 22.1915 17.5757 21.8809 17.3719C21.5703 17.1584 21.3714 16.8575 21.2841 16.4693C21.0026 16.8478 20.6387 17.1487 20.1922 17.3719C19.7458 17.5854 19.2751 17.6921 18.7802 17.6921C18.0426 17.6921 17.4652 17.4738 17.0479 17.037C16.6305 16.5906 16.4219 15.9841 16.4219 15.2174C16.4219 14.4895 16.5723 13.8102 16.8732 13.1793C17.174 12.5485 17.5913 12.0439 18.1251 11.6654C18.6589 11.2772 19.2606 11.0831 19.9302 11.0831C20.7648 11.0831 21.3374 11.3742 21.648 11.9565L21.779 11.1995H23.4822L22.798 15.13C22.7689 15.3144 22.7543 15.4843 22.7543 15.6395C22.7543 15.8725 22.8029 16.0471 22.8999 16.1636C22.997 16.2801 23.162 16.3383 23.3949 16.3383C23.7442 16.3383 24.0354 16.1733 24.2683 15.8433C24.5109 15.5134 24.6905 15.1009 24.8069 14.606C24.9331 14.111 24.9962 13.6161 24.9962 13.1211C24.9962 11.9468 24.6371 11.0394 23.9189 10.3989C23.2008 9.74865 22.1866 9.42354 20.8764 9.42354C19.7604 9.42354 18.7511 9.69528 17.8485 10.2388C16.946 10.7725 16.2375 11.5052 15.7231 12.4369C15.2185 13.3589 14.9661 14.3876 14.9661 15.5231C14.9661 16.7265 15.3204 17.6533 16.0288 18.3035C16.747 18.9538 17.7612 19.2789 19.0713 19.2789C20.0127 19.2789 20.8425 19.109 21.5606 18.7694L21.8518 20.1087C20.9298 20.4969 19.906 20.691 18.7802 20.691C17.6932 20.691 16.7421 20.4823 15.9269 20.065C15.1214 19.6574 14.4955 19.0751 14.049 18.3181C13.6026 17.5708 13.3794 16.6925 13.3794 15.6832C13.3794 14.2566 13.7094 12.961 14.3693 11.7964C15.0389 10.6318 15.9609 9.71469 17.1352 9.04505C18.3095 8.37541 19.6294 8.04059 21.0948 8.04059ZM19.4207 16.1782C19.7701 16.1782 20.0903 16.0763 20.3815 15.8725C20.6726 15.6687 20.9007 15.3969 21.0657 15.0572C21.2404 14.7176 21.3277 14.3536 21.3277 13.9654C21.3277 13.5578 21.2161 13.2279 20.9929 12.9755C20.7794 12.7232 20.4688 12.597 20.0612 12.597C19.7021 12.597 19.3867 12.7087 19.115 12.9319C18.8433 13.1454 18.6298 13.4268 18.4745 13.7762C18.3289 14.1256 18.2561 14.4944 18.2561 14.8826C18.2561 15.2805 18.3532 15.5959 18.5473 15.8288C18.7414 16.0617 19.0325 16.1782 19.4207 16.1782Z" fill="#434343"/>
</svg>
