<svg width="44" height="35" viewBox="0 0 44 35" fill="none" xmlns="http://www.w3.org/2000/svg">
<path d="M43 18.7291C43 19.8756 42.0551 20.8062 40.8909 20.8062C40.8856 20.8062 40.8782 20.8062 40.8687 20.8062H36.9606V21.0648C36.9606 21.2787 36.9184 21.4792 36.8562 21.6744V31.8534C36.8562 33 35.9113 33.9305 34.7471 33.9305H27.8219C26.6577 33.9305 25.7129 33 25.7129 31.8534V27.998C25.7129 26.0891 24.1353 24.5364 22.1981 24.5364C20.2598 24.5364 18.6822 26.0891 18.6822 27.998V31.8534C18.6822 33 17.7373 33.9305 16.5731 33.9305H9.64689C8.48268 33.9305 7.53781 33 7.53781 31.8534V20.8062H3.52527C2.63524 20.8062 1.84012 20.2578 1.53957 19.4332C1.24008 18.6075 1.49423 17.6863 2.17968 17.1276L20.8525 1.92508C21.6328 1.29052 22.7591 1.29052 23.5394 1.92508L29.3152 6.62562V4.52384C29.3152 3.37727 30.26 2.44672 31.4243 2.44672C31.4243 2.44672 33.6873 2.44672 34.8515 2.44672C36.0157 2.44672 36.9606 3.37727 36.9606 4.52384V12.8497L42.0403 16.9863C42.6172 17.3582 43 18 43 18.7291Z" fill="white" stroke="#434343" stroke-width="2"/>
<path d="M43 18.7291C43 19.8756 42.0551 20.8062 40.8909 20.8062C40.8856 20.8062 40.8782 20.8062 40.8687 20.8062C25.4554 20.8062 11.2264 20.8062 3.52527 20.8062C2.63524 20.8062 1.84012 20.2578 1.53957 19.4332C1.24008 18.6075 1.49423 17.6863 2.17968 17.1276L20.8525 1.92508C21.6328 1.29052 22.7591 1.29052 23.5394 1.92508C30.4729 7.44564 33.6448 10.1496 42.0403 16.9863C42.6172 17.3582 43 18 43 18.7291Z" fill="#ECBE72" stroke="#434343" stroke-width="2"/>
</svg>
