<svg width="43" height="37" viewBox="0 0 43 37" fill="none" xmlns="http://www.w3.org/2000/svg">
<path d="M34.4931 15.996V36.3335C14.4227 36.3335 12.2831 36.3335 1.70645 36.3335C1.01048 36.3335 0.440918 35.7639 0.440918 35.0679V30.2253V10.3857V9.43778V6.53303C0.440918 5.55922 1.23043 4.76971 2.20424 4.76971H14.7327C15.2004 4.76971 15.6486 4.9554 15.9792 5.28602L19.6142 8.92101C19.9448 9.25163 20.3935 9.43732 20.8608 9.43732H32.7298C33.7036 9.43732 34.4931 10.2268 34.4931 11.2006V11.8031V15.996Z" fill="#ECBE72"/>
<path fill-rule="evenodd" clip-rule="evenodd" d="M32.4931 34.3335V11.4373H20.8608C19.8634 11.4373 18.9059 11.0411 18.2 10.3352L14.6345 6.76971H2.44092V34.3335H32.4931ZM34.4931 11.2006C34.4931 10.2268 33.7036 9.43732 32.7298 9.43732H20.8608C20.3935 9.43732 19.9448 9.25163 19.6142 8.92101L15.9792 5.28602C15.6486 4.9554 15.2004 4.76971 14.7327 4.76971H2.20424C1.23043 4.76971 0.440918 5.55922 0.440918 6.53303V35.0679C0.440918 35.7639 1.01048 36.3335 1.70645 36.3335H34.4931V11.2006Z" fill="#434343"/>
<path d="M30.4803 6.64755V31.4717C30.4803 32.1026 29.9546 32.6142 29.3064 32.6142H6.76453C6.11628 32.6142 5.59058 32.1026 5.59058 31.4717V1.14244C5.59058 0.511595 6.11628 0 6.76453 0H23.6489C24.7874 2.75779 27.1161 4.94936 30.4803 6.64755Z" fill="white"/>
<path fill-rule="evenodd" clip-rule="evenodd" d="M30.4803 6.64755C27.1161 4.94936 24.7874 2.75779 23.6489 0H6.76453C6.11628 0 5.59058 0.511595 5.59058 1.14244V31.4717C5.59058 32.1026 6.11628 32.6142 6.76453 32.6142H29.3064C29.9546 32.6142 30.4803 32.1026 30.4803 31.4717V6.64755ZM22.3942 2C23.719 4.40361 25.8243 6.32339 28.4803 7.84265V30.6142H7.59058V2H22.3942Z" fill="#434343"/>
<path d="M30.4804 7.72441H23.2416C22.4994 7.72441 21.8977 7.18283 21.8977 6.51484V0C21.8977 0 21.8977 0 23.6142 0C25.3308 0 30.4804 4.11097 30.4804 6.00788C30.4804 7.90478 30.4804 7.72441 30.4804 7.72441Z" fill="white"/>
<path fill-rule="evenodd" clip-rule="evenodd" d="M30.4467 5.72441C30.0243 3.8362 25.7384 0.388493 23.8977 0.0302959C23.7953 0.0103656 23.7004 0 23.6142 0H21.8977V6.51484C21.8977 7.18283 22.4994 7.72441 23.2416 7.72441H30.4804C30.4804 7.72441 30.4804 7.7695 30.4804 7.57748V6.00788C30.4804 5.91812 30.4689 5.82341 30.4467 5.72441ZM30.4804 8.61803C29.8696 8.63724 29.1751 8.42564 28.4804 7.73229L28.4804 7.72954V7.72842M23.8977 2.13697C24.0445 2.20421 24.2184 2.2935 24.4167 2.40719C25.0191 2.75244 25.7261 3.25257 26.4027 3.8224C27.0829 4.39519 27.673 4.98837 28.073 5.50033C28.136 5.58091 28.1912 5.65567 28.2394 5.72441H23.8977V2.13697Z" fill="#434343"/>
<mask id="path-7-inside-1_1011_26" fill="white">
<path d="M24.9729 10.5324H9.76661C9.38273 10.5324 9.07202 10.2216 9.07202 9.83777C9.07202 9.4539 9.38273 9.14319 9.76661 9.14319H24.9729C25.3563 9.14319 25.6675 9.4539 25.6675 9.83777C25.6675 10.2216 25.3563 10.5324 24.9729 10.5324Z"/>
</mask>
<path d="M24.9729 10.5324H9.76661C9.38273 10.5324 9.07202 10.2216 9.07202 9.83777C9.07202 9.4539 9.38273 9.14319 9.76661 9.14319H24.9729C25.3563 9.14319 25.6675 9.4539 25.6675 9.83777C25.6675 10.2216 25.3563 10.5324 24.9729 10.5324Z" fill="#BBB9B9"/>
<path d="M24.9729 8.53236H9.76661V12.5324H24.9729V8.53236ZM9.76661 8.53236C10.4873 8.53236 11.072 9.11708 11.072 9.83777H7.07202C7.07202 11.3262 8.27816 12.5324 9.76661 12.5324V8.53236ZM11.072 9.83777C11.072 10.5585 10.4873 11.1432 9.76661 11.1432V7.14319C8.27816 7.14319 7.07202 8.34933 7.07202 9.83777H11.072ZM9.76661 11.1432H24.9729V7.14319H9.76661V11.1432ZM24.9729 11.1432C24.2526 11.1432 23.6675 10.5593 23.6675 9.83777H27.6675C27.6675 8.34846 26.46 7.14319 24.9729 7.14319V11.1432ZM23.6675 9.83777C23.6675 9.11621 24.2526 8.53236 24.9729 8.53236V12.5324C26.46 12.5324 27.6675 11.3271 27.6675 9.83777H23.6675Z" fill="#434343" mask="url(#path-7-inside-1_1011_26)"/>
<mask id="path-9-inside-2_1011_26" fill="white">
<path d="M24.9729 13.7737H9.76661C9.38273 13.7737 9.07202 13.463 9.07202 13.0791C9.07202 12.6952 9.38273 12.3845 9.76661 12.3845H24.9729C25.3563 12.3845 25.6675 12.6952 25.6675 13.0791C25.6675 13.463 25.3563 13.7737 24.9729 13.7737Z"/>
</mask>
<path d="M24.9729 13.7737H9.76661C9.38273 13.7737 9.07202 13.463 9.07202 13.0791C9.07202 12.6952 9.38273 12.3845 9.76661 12.3845H24.9729C25.3563 12.3845 25.6675 12.6952 25.6675 13.0791C25.6675 13.463 25.3563 13.7737 24.9729 13.7737Z" fill="#BBB9B9"/>
<path d="M24.9729 11.7737H9.76661V15.7737H24.9729V11.7737ZM9.76661 11.7737C10.4873 11.7737 11.072 12.3584 11.072 13.0791H7.07202C7.07202 14.5675 8.27816 15.7737 9.76661 15.7737V11.7737ZM11.072 13.0791C11.072 13.7998 10.4873 14.3845 9.76661 14.3845V10.3845C8.27816 10.3845 7.07202 11.5907 7.07202 13.0791H11.072ZM9.76661 14.3845H24.9729V10.3845H9.76661V14.3845ZM24.9729 14.3845C24.2526 14.3845 23.6675 13.8007 23.6675 13.0791H27.6675C27.6675 11.5898 26.46 10.3845 24.9729 10.3845V14.3845ZM23.6675 13.0791C23.6675 12.3575 24.2526 11.7737 24.9729 11.7737V15.7737C26.46 15.7737 27.6675 14.5684 27.6675 13.0791H23.6675Z" fill="#434343" mask="url(#path-9-inside-2_1011_26)"/>
<path d="M1.70654 36.3333C2.40252 36.3333 2.76324 35.8022 2.97208 35.0678L8.06384 17.304C8.28564 16.5298 8.99366 15.9963 9.79937 15.9963H40.9996C41.7447 15.9963 42.28 16.7122 42.0698 17.4272L37.0243 34.5723C36.7965 35.3831 36.2968 36.3402 35.2633 36.3333H1.70654Z" fill="#ECBE72"/>
<path fill-rule="evenodd" clip-rule="evenodd" d="M8.06384 17.304L2.97208 35.0678C2.76324 35.8022 2.40252 36.3333 1.70654 36.3333H35.2633C36.2968 36.3402 36.7965 35.3831 37.0243 34.5723L42.0698 17.4272C42.28 16.7122 41.7447 15.9963 40.9996 15.9963H9.79937C8.99366 15.9963 8.28564 16.5298 8.06384 17.304ZM5.26314 34.3333L9.94593 17.9963H39.8175L35.1022 34.0195L35.0989 34.0313C35.0662 34.1474 35.0293 34.2497 34.9913 34.3333H5.26314Z" fill="#434343"/>
</svg>
