<svg width="22" height="22" viewBox="0 0 24 22" fill="none" xmlns="http://www.w3.org/2000/svg">
<path d="M1 11.9999C1 11.9999 1.1694 14.8395 1.20877 15.7349C1.26127 16.9357 1.60008 18.2771 2.16555 19.2084C2.96367 20.5285 3.90374 20.9942 5.15877 20.9975C6.6345 21.0007 17.3655 21.0007 18.8412 20.9975C20.0963 20.9942 21.0363 20.5285 21.8344 19.2084C22.3999 18.2771 22.7387 16.9357 22.7924 15.7349C22.8306 14.8395 23 11.9999 23 11.9999" fill="#172741"/>
<path d="M1 11.9999C1 11.9999 1.1694 14.8395 1.20877 15.7349C1.26127 16.9357 1.60008 18.2771 2.16555 19.2084C2.96367 20.5285 3.90374 20.9942 5.15877 20.9975C6.6345 21.0007 17.3655 21.0007 18.8412 20.9975C20.0963 20.9942 21.0363 20.5285 21.8344 19.2084C22.3999 18.2771 22.7387 16.9357 22.7924 15.7349C22.8306 14.8395 23 11.9999 23 11.9999" stroke="#4067B2" stroke-width="2" stroke-linecap="round" stroke-linejoin="round"/>
<path d="M7.91196 3.21773V2.78489C7.91196 1.36156 9.06462 0.208893 10.488 0.208893H13.5003C14.9225 0.208893 16.0763 1.36156 16.0763 2.78489L16.0775 3.21773" fill="#172741"/>
<path d="M11.9942 16.458V14.9483" stroke="#4067B2" stroke-width="2" stroke-linecap="round" stroke-linejoin="round"/>
<path fill-rule="evenodd" clip-rule="evenodd" d="M1.20819 6.78721V10.8321C3.44586 12.3079 6.12686 13.3416 9.06919 13.7511C9.42153 12.4666 10.58 11.5251 11.9882 11.5251C13.3742 11.5251 14.556 12.4666 14.885 13.7628C17.8391 13.3533 20.5306 12.3196 22.7799 10.8321V6.78721C22.7799 4.81088 21.1897 3.21954 19.2134 3.21954H4.78636C2.81002 3.21954 1.20819 4.81088 1.20819 6.78721Z" fill="#172741" stroke="#4067B2" stroke-width="2" stroke-linecap="round" stroke-linejoin="round"/>
</svg>
