<svg width="11" height="11" viewBox="0 0 11 11" fill="none" xmlns="http://www.w3.org/2000/svg">
<g clip-path="url(#clip0_882_301)">
<path d="M9.71094 2.57812H8.07812C8.07812 1.15427 6.92386 0 5.5 0C4.07614 0 2.92188 1.15427 2.92188 2.57812H1.28906C0.577135 2.57812 0 3.15526 0 3.86719V9.71094C0 10.4229 0.577135 11 1.28906 11H9.71094C10.4229 11 11 10.4229 11 9.71094V3.86719C11 3.15526 10.4229 2.57812 9.71094 2.57812ZM5.5 1.28906C6.21193 1.28906 6.78906 1.8662 6.78906 2.57812H4.21094C4.21094 1.8662 4.78807 1.28906 5.5 1.28906ZM8.63672 5.58594V6.01562C8.63672 6.3716 8.34816 6.66016 7.99219 6.66016C7.63621 6.66016 7.34766 6.3716 7.34766 6.01562V5.58594H3.65234V6.01562C3.65234 6.3716 3.36379 6.66016 3.00781 6.66016C2.65184 6.66016 2.36328 6.3716 2.36328 6.01562V5.58594C2.00731 5.58594 1.71875 5.29738 1.71875 4.94141C1.71875 4.58543 2.00731 4.29688 2.36328 4.29688H8.63672C8.99269 4.29688 9.28125 4.58543 9.28125 4.94141C9.28125 5.29738 8.99269 5.58594 8.63672 5.58594Z" fill="#757575" stroke="#757575" stroke-width="0.125"/>
</g>
<defs>
<clipPath id="clip0_882_301">
<rect width="11" height="11" fill="white"/>
</clipPath>
</defs>
</svg>
