<svg width="24" height="24" viewBox="0 0 24 24" fill="none" xmlns="http://www.w3.org/2000/svg">
<path d="M7.26562 19.2417H3.24046C3.05398 19.2417 2.87514 19.1676 2.74328 19.0358C2.61142 18.9039 2.53734 18.7251 2.53734 18.5386V8.89969C2.53734 8.71321 2.61142 8.53437 2.74328 8.4025C2.87514 8.27064 3.05398 8.19656 3.24046 8.19656H7.26562C7.4521 8.19656 7.63094 8.27064 7.7628 8.4025C7.89467 8.53437 7.96874 8.71321 7.96874 8.89969V18.5386C7.96874 18.7251 7.89467 18.9039 7.7628 19.0358C7.63094 19.1676 7.4521 19.2417 7.26562 19.2417ZM3.94499 17.8355H6.56249V9.60281H3.94359L3.94499 17.8355Z" fill="#4067B2"/>
<path opacity="0.8" d="M3 9H7.36364V18.8182H3V9Z" fill="#2C5DBC"/>
<path d="M16.9997 20.7836H12.938C12.1455 20.7843 11.3594 20.643 10.6167 20.3664L7.45268 19.1913C7.27939 19.1252 7.1392 18.9934 7.06267 18.8244C6.98613 18.6555 6.97943 18.4632 7.04404 18.2893C7.10864 18.1155 7.23931 17.9742 7.4076 17.8963C7.57588 17.8183 7.76815 17.81 7.94253 17.8731L11.1061 19.0483C11.6923 19.2661 12.3127 19.3772 12.938 19.3764H16.9997C17.1764 19.3764 17.3458 19.3063 17.4707 19.1813C17.5956 19.0564 17.6658 18.887 17.6658 18.7103C17.6658 18.5337 17.5956 18.3643 17.4707 18.2393C17.3458 18.1144 17.1764 18.0442 16.9997 18.0442C16.8132 18.0442 16.6344 17.9702 16.5025 17.8383C16.3707 17.7064 16.2966 17.5276 16.2966 17.3411C16.2966 17.1546 16.3707 16.9758 16.5025 16.8439C16.6344 16.7121 16.8132 16.638 16.9997 16.638H17.9583C18.135 16.638 18.3044 16.5678 18.4293 16.4429C18.5542 16.318 18.6244 16.1486 18.6244 15.9719C18.6244 15.7952 18.5542 15.6258 18.4293 15.5009C18.3044 15.376 18.135 15.3058 17.9583 15.3058C17.7718 15.3058 17.593 15.2317 17.4611 15.0999C17.3293 14.968 17.2552 14.7892 17.2552 14.6027C17.2552 14.4162 17.3293 14.2374 17.4611 14.1055C17.593 13.9736 17.7718 13.8996 17.9583 13.8996H18.9164C19.0482 13.8996 19.177 13.8605 19.2866 13.7874C19.3962 13.7142 19.4816 13.6101 19.532 13.4884C19.5824 13.3667 19.5956 13.2327 19.5699 13.1035C19.5442 12.9742 19.4807 12.8555 19.3875 12.7624C19.3259 12.7002 19.2524 12.651 19.1716 12.6175C19.0907 12.5841 19.004 12.567 18.9164 12.5674C18.73 12.5674 18.5511 12.4933 18.4192 12.3614C18.2874 12.2296 18.2133 12.0507 18.2133 11.8642C18.2133 11.6778 18.2874 11.4989 18.4192 11.3671C18.5511 11.2352 18.73 11.1611 18.9164 11.1611H19.875C20.0066 11.1607 20.1351 11.1213 20.2443 11.0479C20.3535 10.9746 20.4386 10.8705 20.4887 10.7489C20.5388 10.6272 20.5518 10.4935 20.526 10.3645C20.5003 10.2354 20.4368 10.1169 20.3438 10.0239C20.2824 9.96203 20.2094 9.91289 20.1289 9.87934C20.0485 9.84579 19.9622 9.8285 19.875 9.82846H13.2357C13.1133 9.82861 12.993 9.79683 12.8867 9.73626C12.7804 9.67569 12.6917 9.58842 12.6295 9.48308C12.5672 9.37775 12.5335 9.25799 12.5317 9.13565C12.5299 9.0133 12.5601 8.89261 12.6192 8.78549C12.8329 8.35212 12.9783 7.88839 13.0505 7.41065C13.2094 6.38549 13.0135 5.45878 12.4683 4.65628C12.3981 4.55632 12.298 4.48128 12.1823 4.442C12.0667 4.40272 11.9416 4.40124 11.825 4.43778C11.7085 4.47431 11.6066 4.54696 11.5341 4.64522C11.4615 4.74349 11.4222 4.86227 11.4216 4.9844C11.4446 7.39284 10.3317 9.14315 8.20362 10.0469C8.1183 10.0851 7.94253 17.8732 7.93278 10.108C7.94253 17.8732 7.49459 17.9304 7.4076 17.8963C7.47458 17.9615 7.3206 17.8621 7.4076 17.8963C7.34062 17.8311 7.08056 18.3754 7.04404 18.2893C7.00752 18.2033 7.2138 9.50129 7.21343 9.40783C7.21306 9.31436 7.23133 9.22176 7.26717 9.13543C7.30301 9.04911 7.3557 8.9708 7.42216 8.90508C7.48863 8.83936 7.56752 8.78755 7.65424 8.75268C8.53174 8.37768 9.17112 7.8269 9.55503 7.10831C9.86815 6.5219 10.0238 5.81221 10.0158 4.99893C10.0088 4.11018 10.5567 3.36018 11.4089 3.09487C12.2611 2.82956 13.1344 3.13143 13.6332 3.86643C14.7914 5.57081 14.5824 7.33987 14.265 8.42315H19.875C20.3426 8.42321 20.7965 8.58141 21.1628 8.87204C21.5291 9.16266 21.7864 9.56863 21.8928 10.024C21.9991 10.4793 21.9484 10.9572 21.7488 11.3801C21.5492 11.803 21.2125 12.1459 20.7933 12.3532C21.023 12.8443 21.0514 13.4058 20.8723 13.9176C20.6932 14.4294 20.321 14.8508 19.8352 15.0916C20.065 15.5828 20.0934 16.1445 19.9142 16.6564C19.735 17.1684 19.3626 17.5898 18.8766 17.8305C19.0246 18.1463 19.0905 18.4943 19.0683 18.8424C19.0461 19.1904 18.9365 19.5272 18.7496 19.8216C18.5626 20.1161 18.3044 20.3586 17.9989 20.5267C17.6934 20.6949 17.3503 20.7832 17.0016 20.7836H16.9997Z" fill="#4067B2"/>
<path opacity="0.7" d="M8 10L9.5 9L11 7L11.5 4L12.5 4.5L13 5.5L13.5 7.5L13 9.5H16H20.5L21 11L18 20L12 19.5L7.5 18L8 10Z" fill="#4067B2"/>
</svg>
