<svg width="12" height="12" viewBox="0 0 12 12" fill="none" xmlns="http://www.w3.org/2000/svg">
<path d="M5.89999 0C3.41487 0 1.39999 2.01487 1.39999 4.5C1.39999 5.47856 1.72081 6.3765 2.25406 7.11188C2.26362 7.1295 2.26512 7.14919 2.27599 7.16606L5.27599 11.6661C5.41512 11.8748 5.64949 12 5.89999 12C6.15049 12 6.38487 11.8748 6.52399 11.6661L9.52399 7.16606C9.53506 7.14919 9.53637 7.1295 9.54593 7.11188C10.0792 6.3765 10.4 5.47856 10.4 4.5C10.4 2.01487 8.38512 0 5.89999 0ZM5.89999 6C5.07162 6 4.39999 5.32837 4.39999 4.5C4.39999 3.67162 5.07162 3 5.89999 3C6.72837 3 7.39999 3.67162 7.39999 4.5C7.39999 5.32837 6.72837 6 5.89999 6Z" fill="#757575"/>
</svg>
