<svg width="22" height="22" viewBox="0 0 18 18" fill="none" xmlns="http://www.w3.org/2000/svg">
<path d="M8.00001 2.77978C7.99992 3.76717 7.99983 4.63979 8.09442 5.34316C8.19693 6.10557 8.43228 6.86786 9.05445 7.49003C9.67662 8.11212 10.4677 8.80308 11.2301 8.90559C11.9335 9.00018 12.806 9.00009 13.7934 9C15.0262 9 17.5457 9 18 9C17.7399 4.88912 12.1941 0.0906809 8.00001 0V2.77978Z" fill="#172741"/>
<path d="M6.05003 0.00195312C6.01703 0.202652 6 0.407425 6 0.615411V6.38464C6 8.93365 8.55837 11 11.7143 11H18C17.9996 14.2612 17.9791 15.9122 16.9456 16.9456C15.8912 18.0001 14.1941 18.0001 10.8 18.0001H7.20002C3.80589 18.0001 2.10884 18.0001 1.05442 16.9456C0 15.8913 0 14.1941 0 10.8V7.20004C0 3.80592 0 2.10887 1.05442 1.05444C1.97993 0.12893 3.40745 0.0157852 6.05003 0.00195312Z" fill="#172741"/>
</svg>
