<svg width="96" height="96" viewBox="0 0 96 96" fill="none" xmlns="http://www.w3.org/2000/svg">
<mask id="path-1-inside-1_83_36" fill="white">
<path d="M48.4917 64.0321L58.6487 86.7213L66.9017 78.8448L77.9999 77.3222L68.1177 55.2473C60.1146 55.1761 53.5931 57.8898 48.8932 64.0321"/>
</mask>
<path d="M48.4917 64.0321L58.6487 86.7213L66.9017 78.8448L77.9999 77.3222L68.1177 55.2473C60.1146 55.1761 53.5931 57.8898 48.8932 64.0321" fill="#D9D9D9"/>
<path d="M58.6487 86.7213L56.8233 87.5385L57.9805 90.1237L60.0295 88.1682L58.6487 86.7213ZM66.9017 78.8448L66.6299 76.8633L65.9889 76.9513L65.5209 77.398L66.9017 78.8448ZM77.9999 77.3222L78.2717 79.3037L80.9158 78.9409L79.8253 76.505L77.9999 77.3222ZM68.1177 55.2473L69.9432 54.4301L69.4188 53.2588L68.1355 53.2474L68.1177 55.2473ZM46.6663 64.8493L56.8233 87.5385L60.4741 85.9041L50.3171 63.215L46.6663 64.8493ZM60.0295 88.1682L68.2826 80.2916L65.5209 77.398L57.2679 85.2745L60.0295 88.1682ZM67.1736 80.8262L78.2717 79.3037L77.7281 75.3408L66.6299 76.8633L67.1736 80.8262ZM79.8253 76.505L69.9432 54.4301L66.2923 56.0645L76.1745 78.1394L79.8253 76.505ZM68.1355 53.2474C59.6093 53.1716 52.447 56.0965 47.3048 62.8168L50.4815 65.2475C54.7392 59.6832 60.6199 57.1807 68.1 57.2472L68.1355 53.2474Z" fill="#434343" mask="url(#path-1-inside-1_83_36)"/>
<path d="M47.3839 64.1336L37.6659 85.0586L30.1451 78.1401L29.9125 77.9261L29.5992 77.8846L19.4802 76.5465L28.8699 56.3287C38.3144 55.7322 44.4285 58.3307 47.3839 64.1336Z" fill="#D9D9D9" stroke="#434343" stroke-width="2"/>
<mask id="path-4-inside-2_83_36" fill="white">
<path fill-rule="evenodd" clip-rule="evenodd" d="M21.2378 37.1138C21.2378 52.0874 33.3763 64.2268 48.3508 64.2268C63.3252 64.2268 75.4637 52.0874 75.4637 37.1138C75.4637 22.1402 63.3252 10 48.3508 10C33.3763 10 21.2378 22.1402 21.2378 37.1138Z"/>
</mask>
<path fill-rule="evenodd" clip-rule="evenodd" d="M21.2378 37.1138C21.2378 52.0874 33.3763 64.2268 48.3508 64.2268C63.3252 64.2268 75.4637 52.0874 75.4637 37.1138C75.4637 22.1402 63.3252 10 48.3508 10C33.3763 10 21.2378 22.1402 21.2378 37.1138Z" fill="#C98181"/>
<path d="M48.3508 62.2268C34.4809 62.2268 23.2378 50.9829 23.2378 37.1138H19.2378C19.2378 53.192 32.2717 66.2268 48.3508 66.2268V62.2268ZM48.3508 66.2268C64.4298 66.2268 77.4637 53.192 77.4637 37.1138H73.4637C73.4637 50.9829 62.2206 62.2268 48.3508 62.2268V66.2268ZM77.4637 37.1138C77.4637 21.0358 64.4299 8 48.3508 8V12C62.2205 12 73.4637 23.2447 73.4637 37.1138H77.4637ZM23.2378 37.1138C23.2378 23.2447 34.481 12 48.3508 12V8C32.2716 8 19.2378 21.0358 19.2378 37.1138H23.2378Z" fill="#434343" mask="url(#path-4-inside-2_83_36)"/>
<path d="M59.0778 53.2246L59.0791 53.2253C59.1245 53.2497 59.1736 53.2615 59.2219 53.2615C59.2856 53.2615 59.3512 53.2417 59.4088 53.2001C59.5085 53.1241 59.5667 52.9887 59.5431 52.8471C59.5431 52.847 59.5431 52.8468 59.5431 52.8467L57.6112 41.36L57.5254 40.8498L57.8923 40.485L66.075 32.3493L66.0752 32.3491C66.1666 32.2583 66.2058 32.1143 66.163 31.9763C66.1179 31.8393 66.0091 31.7568 65.8974 31.7401C65.8972 31.74 65.8971 31.74 65.897 31.74L54.5908 30.0642L54.0675 29.9867L53.8372 29.5105L48.7811 19.0591L48.7804 19.0575C48.7214 18.9351 48.6065 18.8689 48.4919 18.8689C48.3788 18.8689 48.2625 18.9353 48.203 19.0586L48.2027 19.0591L43.1467 29.5105L42.9163 29.9867L42.3931 30.0642L31.0869 31.74C31.0868 31.74 31.0867 31.74 31.0866 31.74C30.9736 31.757 30.8639 31.8419 30.8206 31.9772C30.7784 32.1086 30.8151 32.2554 30.9096 32.35C30.9097 32.3501 30.9098 32.3503 30.91 32.3504L39.0903 40.4851L39.4571 40.8499L39.3713 41.36L37.4395 52.8467C37.4395 52.8467 37.4394 52.8468 37.4394 52.8468C37.4157 52.9889 37.4743 53.1245 37.5753 53.2003C37.6772 53.2745 37.8018 53.2809 37.9046 53.226L59.0778 53.2246ZM59.0778 53.2246L48.9631 47.8021L48.4905 47.5487L48.018 47.8022L37.905 53.2258L59.0778 53.2246Z" fill="#9D6464" stroke="#434343" stroke-width="2"/>
</svg>
