<svg width="78" height="40" viewBox="0 0 78 40" fill="none" xmlns="http://www.w3.org/2000/svg">
<g filter="url(#filter0_ii_83_123)">
<path d="M0 8C0 3.58172 3.58172 0 8 0H40V40H8C3.58172 40 0 36.4183 0 32V8Z" fill="#9D6464"/>
</g>
<path d="M1 8C1 4.13401 4.13401 1 8 1H39V39H8C4.13401 39 1 35.866 1 32V8Z" stroke="#434343" stroke-width="2"/>
<g filter="url(#filter1_ii_83_123)">
<path d="M38 0H70C74.4183 0 78 3.58172 78 8V32C78 36.4183 74.4183 40 70 40H38V0Z" fill="#9D6464"/>
</g>
<path d="M39 1H70C73.866 1 77 4.13401 77 8V32C77 35.866 73.866 39 70 39H39V1Z" stroke="#434343" stroke-width="2"/>
<path d="M59.8001 20L54.6001 14.8C54.3556 14.5555 54.2334 14.2444 54.2334 13.8667C54.2334 13.4889 54.3556 13.1778 54.6001 12.9333C54.8445 12.6889 55.1556 12.5667 55.5334 12.5667C55.9112 12.5667 56.2223 12.6889 56.4667 12.9333L62.6001 19.0667C62.7334 19.2 62.8278 19.3444 62.8834 19.5C62.939 19.6555 62.9667 19.8222 62.9667 20C62.9667 20.1778 62.939 20.3444 62.8834 20.5C62.8278 20.6555 62.7334 20.8 62.6001 20.9333L56.4667 27.0667C56.2223 27.3111 55.9112 27.4333 55.5334 27.4333C55.1556 27.4333 54.8445 27.3111 54.6001 27.0667C54.3556 26.8222 54.2334 26.5111 54.2334 26.1333C54.2334 25.7555 54.3556 25.4444 54.6001 25.2L59.8001 20Z" fill="white"/>
<path d="M20.1999 20L25.3999 25.2C25.6444 25.4445 25.7666 25.7556 25.7666 26.1333C25.7666 26.5111 25.6444 26.8222 25.3999 27.0667C25.1555 27.3111 24.8444 27.4333 24.4666 27.4333C24.0888 27.4333 23.7777 27.3111 23.5333 27.0667L17.3999 20.9333C17.2666 20.8 17.1722 20.6556 17.1166 20.5C17.061 20.3445 17.0333 20.1778 17.0333 20C17.0333 19.8222 17.061 19.6556 17.1166 19.5C17.1722 19.3445 17.2666 19.2 17.3999 19.0667L23.5333 12.9333C23.7777 12.6889 24.0888 12.5667 24.4666 12.5667C24.8444 12.5667 25.1555 12.6889 25.3999 12.9333C25.6444 13.1778 25.7666 13.4889 25.7666 13.8667C25.7666 14.2445 25.6444 14.5556 25.3999 14.8L20.1999 20Z" fill="white"/>
<defs>
<filter id="filter0_ii_83_123" x="0" y="0" width="40" height="40" filterUnits="userSpaceOnUse" color-interpolation-filters="sRGB">
<feFlood flood-opacity="0" result="BackgroundImageFix"/>
<feBlend mode="normal" in="SourceGraphic" in2="BackgroundImageFix" result="shape"/>
<feColorMatrix in="SourceAlpha" type="matrix" values="0 0 0 0 0 0 0 0 0 0 0 0 0 0 0 0 0 0 127 0" result="hardAlpha"/>
<feOffset dx="-4" dy="-4"/>
<feComposite in2="hardAlpha" operator="arithmetic" k2="-1" k3="1"/>
<feColorMatrix type="matrix" values="0 0 0 0 0 0 0 0 0 0 0 0 0 0 0 0 0 0 0.2 0"/>
<feBlend mode="normal" in2="shape" result="effect1_innerShadow_83_123"/>
<feColorMatrix in="SourceAlpha" type="matrix" values="0 0 0 0 0 0 0 0 0 0 0 0 0 0 0 0 0 0 127 0" result="hardAlpha"/>
<feOffset dx="4" dy="4"/>
<feComposite in2="hardAlpha" operator="arithmetic" k2="-1" k3="1"/>
<feColorMatrix type="matrix" values="0 0 0 0 1 0 0 0 0 1 0 0 0 0 1 0 0 0 0.2 0"/>
<feBlend mode="normal" in2="effect1_innerShadow_83_123" result="effect2_innerShadow_83_123"/>
</filter>
<filter id="filter1_ii_83_123" x="38" y="0" width="40" height="40" filterUnits="userSpaceOnUse" color-interpolation-filters="sRGB">
<feFlood flood-opacity="0" result="BackgroundImageFix"/>
<feBlend mode="normal" in="SourceGraphic" in2="BackgroundImageFix" result="shape"/>
<feColorMatrix in="SourceAlpha" type="matrix" values="0 0 0 0 0 0 0 0 0 0 0 0 0 0 0 0 0 0 127 0" result="hardAlpha"/>
<feOffset dx="-4" dy="-4"/>
<feComposite in2="hardAlpha" operator="arithmetic" k2="-1" k3="1"/>
<feColorMatrix type="matrix" values="0 0 0 0 0 0 0 0 0 0 0 0 0 0 0 0 0 0 0.2 0"/>
<feBlend mode="normal" in2="shape" result="effect1_innerShadow_83_123"/>
<feColorMatrix in="SourceAlpha" type="matrix" values="0 0 0 0 0 0 0 0 0 0 0 0 0 0 0 0 0 0 127 0" result="hardAlpha"/>
<feOffset dx="4" dy="4"/>
<feComposite in2="hardAlpha" operator="arithmetic" k2="-1" k3="1"/>
<feColorMatrix type="matrix" values="0 0 0 0 1 0 0 0 0 1 0 0 0 0 1 0 0 0 0.2 0"/>
<feBlend mode="normal" in2="effect1_innerShadow_83_123" result="effect2_innerShadow_83_123"/>
</filter>
</defs>
</svg>
