<svg width="40" height="40" viewBox="0 0 40 40" fill="none" xmlns="http://www.w3.org/2000/svg">
<circle cx="20" cy="20" r="19" fill="#ECBE72" stroke="#434343" stroke-width="2"/>
<path d="M21.2761 19.5V14.2884C21.2761 13.942 21.1612 13.6539 20.9315 13.4239C20.7017 13.1939 20.4139 13.079 20.0678 13.079C19.7217 13.079 19.4335 13.1939 19.203 13.4239C18.9725 13.6539 18.8573 13.942 18.8573 14.2884V19.9703C18.8573 20.1379 18.8863 20.2948 18.9443 20.4409C19.0024 20.5869 19.0895 20.7258 19.2056 20.8575L23.766 25.529C24.0048 25.7781 24.2984 25.899 24.6469 25.8916C24.9953 25.8841 25.2894 25.7633 25.529 25.529C25.7686 25.2947 25.8884 25.0041 25.8884 24.6573C25.8884 24.3104 25.7686 24.0172 25.529 23.7775L21.2761 19.5ZM20.0007 33.5565C18.1352 33.5565 16.3783 33.2009 14.7299 32.4897C13.0816 31.7786 11.6441 30.8097 10.4173 29.5831C9.19064 28.3565 8.22165 26.9191 7.51038 25.271C6.79911 23.6228 6.44348 21.866 6.44348 20.0006C6.44348 18.1351 6.79946 16.378 7.51141 14.7293C8.22337 13.0806 9.19217 11.6434 10.4178 10.4178C11.6434 9.19216 13.0804 8.22248 14.7288 7.50877C16.3772 6.79504 18.1343 6.43817 20 6.43817C21.8657 6.43817 23.6228 6.79504 25.2712 7.50877C26.9196 8.22248 28.3566 9.19216 29.5822 10.4178C30.8079 11.6434 31.7775 13.0804 32.4912 14.7288C33.205 16.3772 33.5618 18.1343 33.5618 20C33.5618 21.8657 33.205 23.6228 32.4912 25.2712C31.7775 26.9196 30.8079 28.3566 29.5822 29.5822C28.3566 30.8078 26.9197 31.7767 25.2714 32.4886C23.6232 33.2006 21.8663 33.5565 20.0007 33.5565ZM19.9973 31.0314C23.0353 31.0314 25.6339 29.9541 27.7929 27.7995C29.9519 25.6449 31.0314 23.046 31.0314 20.0027C31.0314 16.9593 29.9521 14.3595 27.7936 12.2031C25.6351 10.0468 23.0372 8.9686 20.0001 8.9686C16.9603 8.9686 14.3617 10.0466 12.2045 12.2025C10.0472 14.3584 8.96861 16.9576 8.96861 20C8.96861 23.0451 10.0472 25.6449 12.2044 27.7995C14.3616 29.9541 16.9592 31.0314 19.9973 31.0314Z" fill="#434343"/>
</svg>
