<svg width="96" height="96" viewBox="0 0 96 96" fill="none" xmlns="http://www.w3.org/2000/svg">
<path d="M16 37.7463L47.91 18.173L79.845 37.7486L79.9938 61.7287L47.9098 62H47.9054H16V37.7463Z" fill="#9D6464" stroke="#434343" stroke-width="2"/>
<path d="M70 25.6466V47.9723L47.5 75.4225L25 47.9724V25.6466C25 24.1949 26.1924 23 27.6848 23H67.3152C68.8076 23 70 24.1949 70 25.6466Z" fill="#D9D9D9" stroke="#434343" stroke-width="2"/>
<path d="M16.0072 77L16.0004 39.0598L47.3779 63.7532L47.9963 64.2399L48.6147 63.7533L80 39.0592V77H16.0072Z" fill="#C98181" stroke="#434343" stroke-width="2"/>
<path d="M18.5784 77L47.9892 59.1693L77.4196 77H18.5784Z" fill="#C98181" stroke="#434343" stroke-width="2"/>
<path d="M49.7779 30.256C51.6339 30.256 53.2419 30.6 54.6019 31.288C55.9619 31.976 57.0019 32.944 57.7219 34.192C58.4579 35.44 58.8259 36.88 58.8259 38.512C58.8259 39.824 58.5939 41.064 58.1299 42.232C57.6819 43.4 57.0259 44.344 56.1619 45.064C55.2979 45.784 54.2739 46.144 53.0899 46.144C52.2579 46.144 51.5859 45.976 51.0739 45.64C50.5619 45.288 50.2339 44.792 50.0899 44.152C49.6259 44.776 49.0259 45.272 48.2899 45.64C47.5539 45.992 46.7779 46.168 45.9619 46.168C44.7459 46.168 43.7939 45.808 43.1059 45.088C42.4179 44.352 42.0739 43.352 42.0739 42.088C42.0739 40.888 42.3219 39.768 42.8179 38.728C43.3139 37.688 44.0019 36.856 44.8819 36.232C45.7619 35.592 46.7539 35.272 47.8579 35.272C49.2339 35.272 50.1779 35.752 50.6899 36.712L50.9059 35.464H53.7139L52.5859 41.944C52.5379 42.248 52.5139 42.528 52.5139 42.784C52.5139 43.168 52.5939 43.456 52.7539 43.648C52.9139 43.84 53.1859 43.936 53.5699 43.936C54.1459 43.936 54.6259 43.664 55.0099 43.12C55.4099 42.576 55.7059 41.896 55.8979 41.08C56.1059 40.264 56.2099 39.448 56.2099 38.632C56.2099 36.696 55.6179 35.2 54.4339 34.144C53.2499 33.072 51.5779 32.536 49.4179 32.536C47.5779 32.536 45.9139 32.984 44.4259 33.88C42.9379 34.76 41.7699 35.968 40.9219 37.504C40.0899 39.024 39.6739 40.72 39.6739 42.592C39.6739 44.576 40.2579 46.104 41.4259 47.176C42.6099 48.248 44.2819 48.784 46.4419 48.784C47.9939 48.784 49.3619 48.504 50.5459 47.944L51.0259 50.152C49.5059 50.792 47.8179 51.112 45.9619 51.112C44.1699 51.112 42.6019 50.768 41.2579 50.08C39.9299 49.408 38.8979 48.448 38.1619 47.2C37.4259 45.968 37.0579 44.52 37.0579 42.856C37.0579 40.504 37.6019 38.368 38.6899 36.448C39.7939 34.528 41.3139 33.016 43.2499 31.912C45.1859 30.808 47.3619 30.256 49.7779 30.256ZM47.0179 43.672C47.5939 43.672 48.1219 43.504 48.6019 43.168C49.0819 42.832 49.4579 42.384 49.7299 41.824C50.0179 41.264 50.1619 40.664 50.1619 40.024C50.1619 39.352 49.9779 38.808 49.6099 38.392C49.2579 37.976 48.7459 37.768 48.0739 37.768C47.4819 37.768 46.9619 37.952 46.5139 38.32C46.0659 38.672 45.7139 39.136 45.4579 39.712C45.2179 40.288 45.0979 40.896 45.0979 41.536C45.0979 42.192 45.2579 42.712 45.5779 43.096C45.8979 43.48 46.3779 43.672 47.0179 43.672Z" fill="#434343"/>
</svg>
