<svg width="96" height="96" viewBox="0 0 96 96" fill="none" xmlns="http://www.w3.org/2000/svg">
<path d="M48.0002 44.9611L80.6002 62.637V76.558C80.6002 77.9167 79.5136 79 78.1954 79H17.8051C16.4868 79 15.4003 77.9173 15.4003 76.558V62.637L48.0002 44.9611Z" fill="#9D6464" stroke="#434343" stroke-width="2"/>
<path d="M55.2785 26.2299V26.2305C55.2791 27.2459 56.1088 27.7437 56.6507 27.9457C57.2456 28.1676 57.9624 28.2389 58.6139 28.2213C59.2694 28.2036 59.9677 28.0929 60.5378 27.8701C60.8204 27.7596 61.1283 27.5997 61.3814 27.362C61.6438 27.1155 61.895 26.7341 61.8953 26.2306V26.2299V18.4263C61.8953 16.5442 60.3834 15 58.4953 15H37.5065C35.6184 15 34.1065 16.5442 34.1065 18.4263V26.2299C34.1065 26.9174 34.6485 27.2501 34.8415 27.351C35.094 27.483 35.3843 27.5592 35.6364 27.6083C36.1593 27.7101 36.8093 27.7489 37.4231 27.7434C38.0385 27.7378 38.6827 27.6871 39.1974 27.5837C39.4459 27.5339 39.7252 27.4601 39.9666 27.3408C40.0864 27.2815 40.2506 27.1852 40.3965 27.0309C40.551 26.8675 40.7217 26.5957 40.7217 26.2299V21.7045H55.2785V26.2299Z" fill="#D9D9D9" stroke="#434343" stroke-width="2"/>
<path d="M79.8258 61.5637L79.8258 61.5637L51.5803 64.4893L44.4196 64.4901L16.1745 61.5646C14.3796 61.3782 13 59.8466 13 58.0003V30.8124C13 28.8238 14.5921 27.2299 16.5328 27.2299H79.4672C81.4079 27.2299 83 28.8238 83 30.8124V58.0003C83 59.846 81.6203 61.378 79.8258 61.5637Z" fill="#C98181" stroke="#434343" stroke-width="2"/>
<path d="M43.368 66.8941C43.368 69.4635 45.4309 71.5659 48 71.5659C50.5689 71.5659 52.632 69.4645 52.632 66.8941V65.3138V61.3485C52.632 58.7791 50.569 56.6768 48 56.6768C45.432 56.6768 43.368 58.778 43.368 61.3485V66.8941Z" fill="#D9D9D9" stroke="#434343" stroke-width="2"/>
</svg>
