<svg width="40" height="40" viewBox="0 0 40 40" fill="none" xmlns="http://www.w3.org/2000/svg">
<g filter="url(#filter0_ii_411_2)">
<rect width="40" height="40" rx="8" fill="#9D6464"/>
</g>
<rect x="1" y="1" width="38" height="38" rx="7" stroke="#434343" stroke-width="2"/>
<path d="M14 27H17V22C17 21.7167 17.0958 21.4792 17.2875 21.2875C17.4792 21.0958 17.7167 21 18 21H22C22.2833 21 22.5208 21.0958 22.7125 21.2875C22.9042 21.4792 23 21.7167 23 22V27H26V18L20 13.5L14 18V27ZM12 27V18C12 17.6833 12.0708 17.3833 12.2125 17.1C12.3542 16.8167 12.55 16.5833 12.8 16.4L18.8 11.9C19.15 11.6333 19.55 11.5 20 11.5C20.45 11.5 20.85 11.6333 21.2 11.9L27.2 16.4C27.45 16.5833 27.6458 16.8167 27.7875 17.1C27.9292 17.3833 28 17.6833 28 18V27C28 27.55 27.8042 28.0208 27.4125 28.4125C27.0208 28.8042 26.55 29 26 29H22C21.7167 29 21.4792 28.9042 21.2875 28.7125C21.0958 28.5208 21 28.2833 21 28V23H19V28C19 28.2833 18.9042 28.5208 18.7125 28.7125C18.5208 28.9042 18.2833 29 18 29H14C13.45 29 12.9792 28.8042 12.5875 28.4125C12.1958 28.0208 12 27.55 12 27Z" fill="white"/>
<defs>
<filter id="filter0_ii_411_2" x="0" y="0" width="40" height="40" filterUnits="userSpaceOnUse" color-interpolation-filters="sRGB">
<feFlood flood-opacity="0" result="BackgroundImageFix"/>
<feBlend mode="normal" in="SourceGraphic" in2="BackgroundImageFix" result="shape"/>
<feColorMatrix in="SourceAlpha" type="matrix" values="0 0 0 0 0 0 0 0 0 0 0 0 0 0 0 0 0 0 127 0" result="hardAlpha"/>
<feOffset dx="-4" dy="-4"/>
<feComposite in2="hardAlpha" operator="arithmetic" k2="-1" k3="1"/>
<feColorMatrix type="matrix" values="0 0 0 0 0 0 0 0 0 0 0 0 0 0 0 0 0 0 0.2 0"/>
<feBlend mode="normal" in2="shape" result="effect1_innerShadow_411_2"/>
<feColorMatrix in="SourceAlpha" type="matrix" values="0 0 0 0 0 0 0 0 0 0 0 0 0 0 0 0 0 0 127 0" result="hardAlpha"/>
<feOffset dx="4" dy="4"/>
<feComposite in2="hardAlpha" operator="arithmetic" k2="-1" k3="1"/>
<feColorMatrix type="matrix" values="0 0 0 0 1 0 0 0 0 1 0 0 0 0 1 0 0 0 0.2 0"/>
<feBlend mode="normal" in2="effect1_innerShadow_411_2" result="effect2_innerShadow_411_2"/>
</filter>
</defs>
</svg>
