<svg width="28" height="28" viewBox="0 0 28 28" fill="none" xmlns="http://www.w3.org/2000/svg">
<g filter="url(#filter0_i_54_1228)">
<circle cx="14" cy="14" r="12" fill="#D9D9D9"/>
</g>
<circle cx="14" cy="14" r="13" stroke="#434343" stroke-width="2"/>
<path d="M10.0528 18.3889H13.582C14.0065 18.3889 14.367 18.5375 14.6635 18.8347C14.9601 19.1319 15.1083 19.4932 15.1083 19.9187C15.1083 20.3442 14.9601 20.7044 14.6635 20.9993C14.367 21.2942 14.0065 21.4417 13.582 21.4417H8.52638C8.10185 21.4417 7.74132 21.2934 7.44479 20.9969C7.14826 20.7003 7 20.3398 7 19.9153V14.8597C7 14.4352 7.14859 14.0747 7.44578 13.7781C7.74295 13.4816 8.10429 13.3333 8.52979 13.3333C8.95529 13.3333 9.3155 13.4816 9.61042 13.7781C9.90531 14.0747 10.0528 14.4352 10.0528 14.8597V18.3889ZM17.3889 11.0528H13.8597C13.4352 11.0528 13.0747 10.9042 12.7781 10.607C12.4816 10.3098 12.3333 9.94847 12.3333 9.52297C12.3333 9.09746 12.4816 8.73726 12.7781 8.44237C13.0747 8.14746 13.4352 8 13.8597 8H18.9153C19.3398 8 19.7003 8.14826 19.9969 8.44479C20.2934 8.74132 20.4417 9.10185 20.4417 9.52638V14.582C20.4417 15.0065 20.2931 15.367 19.9959 15.6635C19.6987 15.9601 19.3374 16.1083 18.9119 16.1083C18.4864 16.1083 18.1262 15.9601 17.8313 15.6635C17.5364 15.367 17.3889 15.0065 17.3889 14.582V11.0528Z" fill="#434343"/>
<defs>
<filter id="filter0_i_54_1228" x="0" y="0" width="28" height="28" filterUnits="userSpaceOnUse" color-interpolation-filters="sRGB">
<feFlood flood-opacity="0" result="BackgroundImageFix"/>
<feBlend mode="normal" in="SourceGraphic" in2="BackgroundImageFix" result="shape"/>
<feColorMatrix in="SourceAlpha" type="matrix" values="0 0 0 0 0 0 0 0 0 0 0 0 0 0 0 0 0 0 127 0" result="hardAlpha"/>
<feOffset dx="4" dy="4"/>
<feComposite in2="hardAlpha" operator="arithmetic" k2="-1" k3="1"/>
<feColorMatrix type="matrix" values="0 0 0 0 0 0 0 0 0 0 0 0 0 0 0 0 0 0 0.25 0"/>
<feBlend mode="normal" in2="shape" result="effect1_innerShadow_54_1228"/>
</filter>
</defs>
</svg>
