<svg width="96" height="96" viewBox="0 0 96 96" fill="none" xmlns="http://www.w3.org/2000/svg">
<path d="M19.5837 77.8353L19.5817 77.8424C19.5071 78.1047 19.2582 78.3963 18.758 78.6409C18.2681 78.8804 17.6779 78.9999 17.2118 78.9999C16.5477 78.9999 16 78.4522 16 77.7881V69.3246V34.6508V32.9942V27.9175C16 26.7679 16.9321 25.8358 18.0818 25.8358H39.9778C40.53 25.8358 41.059 26.0549 41.4493 26.4452L47.8022 32.7981C48.5676 33.5636 49.6062 33.9934 50.6879 33.9934H71.4315C72.5811 33.9934 73.5133 34.9255 73.5133 36.0751V37.128V43.4925L31.9676 45.0358C31.1566 45.0382 30.3771 45.1911 29.723 45.6493C29.0528 46.1188 28.647 46.8147 28.4108 47.6376C28.4105 47.6385 28.4102 47.6395 28.41 47.6404L19.5837 77.8353Z" fill="#F2E9D8" stroke="#1F1F1F" stroke-width="2"/>
<path d="M65.5726 28.4223V71.9581C65.5726 72.5274 65.1106 72.9894 64.5413 72.9894H25.5369C24.9675 72.9894 24.5056 72.5274 24.5056 71.9581V18.0313C24.5056 17.4619 24.9675 17 25.5369 17H54.0891C56.1879 21.7353 60.1314 25.4949 65.5726 28.4223Z" fill="#F2E9D8" stroke="#1F1F1F" stroke-width="2"/>
<path d="M55.7521 18.4141L64.1582 26.8196H56.6029C56.1331 26.8196 55.7521 26.4386 55.7521 25.9688V18.4141Z" fill="#BBB9B9" stroke="#1F1F1F" stroke-width="2"/>
<path d="M57.8744 33.9073H31.2982C31.1796 33.9073 31.0843 33.812 31.0843 33.6934C31.0843 33.5748 31.1796 33.4795 31.2982 33.4795H57.8744C57.9926 33.4795 58.0883 33.5752 58.0883 33.6934C58.0883 33.8116 57.9926 33.9073 57.8744 33.9073Z" fill="#BBB9B9" stroke="#1F1F1F" stroke-width="2"/>
<path d="M57.8744 39.5723H31.2982C31.1796 39.5723 31.0843 39.477 31.0843 39.3584C31.0843 39.2398 31.1796 39.1445 31.2982 39.1445H57.8744C57.9926 39.1445 58.0883 39.2402 58.0883 39.3584C58.0883 39.4766 57.9926 39.5723 57.8744 39.5723Z" fill="#BBB9B9" stroke="#1F1F1F" stroke-width="2"/>
<path d="M75.8591 78.9999H20.0472C20.1858 78.6953 20.2955 78.3776 20.3851 78.0627C20.3852 78.0624 20.3853 78.062 20.3854 78.0617L29.2837 47.0179L29.2838 47.0177C29.5484 46.0939 30.3934 45.4569 31.3556 45.4569H85.8845C86.5184 45.4569 86.9746 46.0657 86.7955 46.6753C86.7954 46.6754 86.7954 46.6754 86.7954 46.6755L77.9775 76.6399L77.9774 76.6399L77.9741 76.6517C77.7936 77.2939 77.5246 77.9158 77.1572 78.3576C76.8125 78.772 76.4091 79.0036 75.8658 78.9999H75.8591Z" fill="#DAA28F" stroke="#1F1F1F" stroke-width="2"/>
</svg>
