<svg width="40" height="40" viewBox="0 0 40 40" fill="none" xmlns="http://www.w3.org/2000/svg">
<g filter="url(#filter0_ii_83_135)">
<rect width="40" height="40" rx="8" fill="#9D6464"/>
</g>
<rect x="1" y="1" width="38" height="38" rx="7" stroke="#434343" stroke-width="2"/>
<path d="M20 28C17.7667 28 15.875 27.225 14.325 25.675C12.775 24.125 12 22.2333 12 20C12 17.7667 12.775 15.875 14.325 14.325C15.875 12.775 17.7667 12 20 12C21.15 12 22.25 12.2375 23.3 12.7125C24.35 13.1875 25.25 13.8667 26 14.75V13C26 12.7167 26.0958 12.4792 26.2875 12.2875C26.4792 12.0958 26.7167 12 27 12C27.2833 12 27.5208 12.0958 27.7125 12.2875C27.9042 12.4792 28 12.7167 28 13V18C28 18.2833 27.9042 18.5208 27.7125 18.7125C27.5208 18.9042 27.2833 19 27 19H22C21.7167 19 21.4792 18.9042 21.2875 18.7125C21.0958 18.5208 21 18.2833 21 18C21 17.7167 21.0958 17.4792 21.2875 17.2875C21.4792 17.0958 21.7167 17 22 17H25.2C24.6667 16.0667 23.9375 15.3333 23.0125 14.8C22.0875 14.2667 21.0833 14 20 14C18.3333 14 16.9167 14.5833 15.75 15.75C14.5833 16.9167 14 18.3333 14 20C14 21.6667 14.5833 23.0833 15.75 24.25C16.9167 25.4167 18.3333 26 20 26C21.1333 26 22.1708 25.7125 23.1125 25.1375C24.0542 24.5625 24.7833 23.7917 25.3 22.825C25.4333 22.5917 25.6208 22.4292 25.8625 22.3375C26.1042 22.2458 26.35 22.2417 26.6 22.325C26.8667 22.4083 27.0583 22.5833 27.175 22.85C27.2917 23.1167 27.2833 23.3667 27.15 23.6C26.4667 24.9333 25.4917 26 24.225 26.8C22.9583 27.6 21.55 28 20 28Z" fill="white"/>
<defs>
<filter id="filter0_ii_83_135" x="0" y="0" width="40" height="40" filterUnits="userSpaceOnUse" color-interpolation-filters="sRGB">
<feFlood flood-opacity="0" result="BackgroundImageFix"/>
<feBlend mode="normal" in="SourceGraphic" in2="BackgroundImageFix" result="shape"/>
<feColorMatrix in="SourceAlpha" type="matrix" values="0 0 0 0 0 0 0 0 0 0 0 0 0 0 0 0 0 0 127 0" result="hardAlpha"/>
<feOffset dx="-4" dy="-4"/>
<feComposite in2="hardAlpha" operator="arithmetic" k2="-1" k3="1"/>
<feColorMatrix type="matrix" values="0 0 0 0 0 0 0 0 0 0 0 0 0 0 0 0 0 0 0.2 0"/>
<feBlend mode="normal" in2="shape" result="effect1_innerShadow_83_135"/>
<feColorMatrix in="SourceAlpha" type="matrix" values="0 0 0 0 0 0 0 0 0 0 0 0 0 0 0 0 0 0 127 0" result="hardAlpha"/>
<feOffset dx="4" dy="4"/>
<feComposite in2="hardAlpha" operator="arithmetic" k2="-1" k3="1"/>
<feColorMatrix type="matrix" values="0 0 0 0 1 0 0 0 0 1 0 0 0 0 1 0 0 0 0.2 0"/>
<feBlend mode="normal" in2="effect1_innerShadow_83_135" result="effect2_innerShadow_83_135"/>
</filter>
</defs>
</svg>
