<svg width="32" height="32" viewBox="0 0 32 32" fill="none" xmlns="http://www.w3.org/2000/svg">
<path d="M12.4001 21.7667C9.81992 21.7667 7.63229 20.8685 5.8372 19.0722C4.04209 17.2759 3.14453 15.1037 3.14453 12.5556C3.14453 10.0074 4.04269 7.83518 5.839 6.03889C7.63529 4.24258 9.81121 3.34442 12.3668 3.34442C14.9223 3.34442 17.0945 4.24258 18.8834 6.03889C20.6723 7.83518 21.5668 10.0085 21.5668 12.5589C21.5668 13.5641 21.4297 14.4907 21.1556 15.3389C20.8816 16.187 20.4853 16.9666 19.9668 17.6778L27.6112 25.2889C27.952 25.6453 28.1223 26.064 28.1223 26.5451C28.1223 27.0261 27.9483 27.437 27.6001 27.7778C27.2515 28.1333 26.833 28.3111 26.3448 28.3111C25.8566 28.3111 25.4454 28.1333 25.1112 27.7778L17.5001 20.1889C16.8557 20.6766 16.0986 21.0615 15.2288 21.3436C14.359 21.6256 13.4161 21.7667 12.4001 21.7667ZM12.3857 18.2778C13.9842 18.2778 15.3325 17.7222 16.4307 16.6111C17.5288 15.5 18.0779 14.1481 18.0779 12.5556C18.0779 10.963 17.5277 9.6111 16.4274 8.49999C15.3271 7.38885 13.9798 6.83329 12.3857 6.83329C10.7793 6.83329 9.41893 7.38885 8.30473 8.49999C7.19053 9.6111 6.63343 10.963 6.63343 12.5556C6.63343 14.1481 7.18944 15.5 8.30147 16.6111C9.41349 17.7222 10.7749 18.2778 12.3857 18.2778Z" fill="#434343"/>
</svg>
