<svg width="96" height="96" viewBox="0 0 96 96" fill="none" xmlns="http://www.w3.org/2000/svg">
<path d="M67 37.1419V72H30V37.1419V31.4239C30 20.6521 38.3258 12 48.5 12C58.6742 12 67 20.6521 67 31.4239V37.1419Z" fill="#F2E9D8" stroke="#1F1F1F" stroke-width="2"/>
<path d="M56.4714 53.8475C56.4714 57.3617 58.9689 60.3659 62.4115 61.0843L77 70.5639V81.385C77 82.2639 76.2739 83 75.3477 83H66.2257H48.5012H30.7755H21.6535C20.7273 83 20.0009 82.2637 20 81.3856V70.565L34.5883 61.0844C38.0327 60.3671 40.5286 57.3612 40.5286 53.8475V52H56.4714V53.8475Z" fill="#F2E9D8" stroke="#1F1F1F" stroke-width="2"/>
<path d="M64.1464 43.4018L64.1464 43.4017L64.9403 34.8658C60.4745 32.6604 57.5238 30.6073 54.3738 27.3767C49.7067 31.1601 42.2062 33.1858 32.0854 34.4757L32.9147 43.4016C32.9147 43.4017 32.9147 43.4017 32.9148 43.4018C33.5515 50.2454 38.5729 56.2061 45.8846 58.5834C47.5933 59.1388 49.4687 59.1389 51.1774 58.5835C53.9411 57.6841 56.3813 56.271 58.3794 54.4922L64.1464 43.4018ZM64.1464 43.4018C63.9562 45.4499 63.3748 47.414 62.4587 49.2276M64.1464 43.4018L62.4587 49.2276M62.4587 49.2276C61.9627 50.208 61.3696 51.1439 60.6874 52.0253M62.4587 49.2276L60.6874 52.0253M60.6874 52.0253C60.0041 52.9066 59.2316 53.7323 58.3795 54.4921L60.6874 52.0253Z" fill="#F2E9D8" stroke="#1F1F1F" stroke-width="2"/>
<path d="M68.1705 78.2076L68.1704 78.2077C67.321 78.9921 66.5697 79.7667 66.043 80.6907C65.6465 81.3864 65.3934 82.1367 65.2861 83H48.5012H31.7162C31.6086 82.1363 31.3549 81.386 30.9579 80.6902C30.4306 79.7664 29.6788 78.9919 28.8296 78.2077L28.8295 78.2076L20 70.0559V69.391C20 65.4864 22.7216 62.1685 26.4266 61.4743C26.4266 61.4743 26.4266 61.4743 26.4266 61.4743L32.6754 60.3041C33.1537 60.2145 33.6745 60.4909 33.8884 61.0138C35.6546 65.332 38.592 69.5806 41.3578 72.7461C42.7427 74.3311 44.1044 75.6674 45.2802 76.6171C45.8669 77.091 46.4262 77.484 46.9335 77.7637C47.4095 78.0261 47.9617 78.2587 48.5 78.2587C49.0383 78.2587 49.5905 78.0261 50.0665 77.7637C50.5738 77.484 51.1331 77.091 51.7198 76.6171C52.8956 75.6674 54.2573 74.3311 55.6422 72.7461C58.408 69.5806 61.3454 65.332 63.1116 61.0138C63.3255 60.4909 63.8463 60.2145 64.3246 60.3041L70.5734 61.4743C70.5734 61.4743 70.5734 61.4743 70.5734 61.4743C74.2784 62.1685 77 65.4864 77 69.391V70.0559L68.1705 78.2076Z" fill="#DAA28F" stroke="#1F1F1F" stroke-width="2"/>
</svg>
