<svg width="20" height="18" viewBox="0 0 20 18" fill="none" xmlns="http://www.w3.org/2000/svg">
<path d="M8.96433 0.294559C9.58669 -0.0980751 10.3707 -0.0981943 10.9931 0.29425L19.0443 5.37014C19.6162 5.7307 19.9665 6.36947 19.9706 7.05938L20 11.9214C20.0066 13.0219 19.1458 13.9203 18.0758 13.9296L9.97864 14H1.94056C0.868818 14 0 13.1064 0 12.0041L0 7.06713C0 6.37301 0.350631 5.72874 0.925908 5.36581L8.96433 0.294559Z" fill="#9D6464"/>
<path d="M17 9.18086V2.99454C17 2.44532 16.5085 2 15.9024 2H4.09761C3.49147 2 3 2.44532 3 2.99454V9.18086L10 17L17 9.18086Z" fill="white"/>
<path d="M10.5556 3.45499C11.1356 3.45499 11.6381 3.56249 12.0631 3.77749C12.4881 3.99249 12.8131 4.29499 13.0381 4.68499C13.2681 5.07499 13.3831 5.52499 13.3831 6.03499C13.3831 6.44499 13.3106 6.83249 13.1656 7.19749C13.0256 7.56249 12.8206 7.85749 12.5506 8.08249C12.2806 8.30749 11.9606 8.41999 11.5906 8.41999C11.3306 8.41999 11.1206 8.36749 10.9606 8.26249C10.8006 8.15249 10.6981 7.99749 10.6531 7.79749C10.5081 7.99249 10.3206 8.14749 10.0906 8.26249C9.86057 8.37249 9.61807 8.42749 9.36307 8.42749C8.98307 8.42749 8.68557 8.31499 8.47057 8.08999C8.25557 7.85999 8.14807 7.54749 8.14807 7.15249C8.14807 6.77749 8.22557 6.42749 8.38057 6.10249C8.53557 5.77749 8.75057 5.51749 9.02557 5.32249C9.30057 5.12249 9.61057 5.02249 9.95557 5.02249C10.3856 5.02249 10.6806 5.17249 10.8406 5.47249L10.9081 5.08249H11.7856L11.4331 7.10749C11.4181 7.20249 11.4106 7.28999 11.4106 7.36999C11.4106 7.48999 11.4356 7.57999 11.4856 7.63999C11.5356 7.69999 11.6206 7.72999 11.7406 7.72999C11.9206 7.72999 12.0706 7.64499 12.1906 7.47499C12.3156 7.30499 12.4081 7.09249 12.4681 6.83749C12.5331 6.58249 12.5656 6.32749 12.5656 6.07249C12.5656 5.46749 12.3806 4.99999 12.0106 4.66999C11.6406 4.33499 11.1181 4.16749 10.4431 4.16749C9.86807 4.16749 9.34807 4.30749 8.88307 4.58749C8.41807 4.86249 8.05307 5.23999 7.78807 5.71999C7.52807 6.19499 7.39807 6.72499 7.39807 7.30999C7.39807 7.92999 7.58057 8.40749 7.94557 8.74249C8.31557 9.07749 8.83807 9.24499 9.51307 9.24499C9.99807 9.24499 10.4256 9.15749 10.7956 8.98249L10.9456 9.67249C10.4706 9.87249 9.94307 9.97249 9.36307 9.97249C8.80307 9.97249 8.31307 9.86499 7.89307 9.64999C7.47807 9.43999 7.15557 9.13999 6.92557 8.74999C6.69557 8.36499 6.58057 7.91249 6.58057 7.39249C6.58057 6.65749 6.75057 5.98999 7.09057 5.38999C7.43557 4.78999 7.91057 4.31749 8.51557 3.97249C9.12057 3.62749 9.80057 3.45499 10.5556 3.45499ZM9.69307 7.64749C9.87307 7.64749 10.0381 7.59499 10.1881 7.48999C10.3381 7.38499 10.4556 7.24499 10.5406 7.06999C10.6306 6.89499 10.6756 6.70749 10.6756 6.50749C10.6756 6.29749 10.6181 6.12749 10.5031 5.99749C10.3931 5.86749 10.2331 5.80249 10.0231 5.80249C9.83807 5.80249 9.67557 5.85999 9.53557 5.97499C9.39557 6.08499 9.28557 6.22999 9.20557 6.40999C9.13057 6.58999 9.09307 6.77999 9.09307 6.97999C9.09307 7.18499 9.14307 7.34749 9.24307 7.46749C9.34307 7.58749 9.49307 7.64749 9.69307 7.64749Z" fill="#434343"/>
<path d="M18.3644 6.34652C19.0168 5.80942 20 6.27351 20 7.11855V17C20 17.5523 19.5523 18 19 18H1.00205C0.449832 18 0.00214595 17.5524 0.00205154 17.0002L0.000362317 7.11932C0.000217827 6.27414 0.983589 5.80993 1.63603 6.34719L9.36329 12.7102C9.7325 13.0142 10.2653 13.0142 10.6345 12.7103L18.3644 6.34652Z" fill="#C98181"/>
<path d="M18.8574 18C20.0614 18 20.4444 16.3069 19.3675 15.7454L10.5071 11.1256C10.1859 10.9581 9.80787 10.9581 9.48671 11.1257L0.632215 15.7456C-0.444393 16.3073 -0.061209 18 1.14256 18H18.8574Z" fill="#DF8E8E"/>
</svg>
