<svg width="24" height="24" viewBox="0 0 24 24" fill="none" xmlns="http://www.w3.org/2000/svg">
<path d="M16.3336 20.2828H12.2719C11.4794 20.2835 10.6932 20.1422 9.95062 19.8656L6.78656 18.6905C6.61326 18.6244 6.47308 18.4926 6.39655 18.3236C6.32001 18.1547 6.31331 17.9624 6.37792 17.7885C6.44252 17.6147 6.57319 17.4734 6.74148 17.3955C6.90976 17.3175 7.10203 17.3092 7.27641 17.3723L10.44 18.5475C11.0262 18.7653 11.6466 18.8764 12.2719 18.8756H16.3336C16.5103 18.8756 16.6797 18.8054 16.8046 18.6805C16.9295 18.5556 16.9997 18.3862 16.9997 18.2095C16.9997 18.0329 16.9295 17.8634 16.8046 17.7385C16.6797 17.6136 16.5103 17.5434 16.3336 17.5434C16.1471 17.5434 15.9683 17.4694 15.8364 17.3375C15.7045 17.2056 15.6305 17.0268 15.6305 16.8403C15.6305 16.6538 15.7045 16.475 15.8364 16.3431C15.9683 16.2113 16.1471 16.1372 16.3336 16.1372H17.2922C17.4688 16.1372 17.6383 16.067 17.7632 15.9421C17.8881 15.8172 17.9583 15.6477 17.9583 15.4711C17.9583 15.2944 17.8881 15.125 17.7632 15.0001C17.6383 14.8752 17.4688 14.805 17.2922 14.805C17.1057 14.805 16.9269 14.7309 16.795 14.5991C16.6631 14.4672 16.5891 14.2884 16.5891 14.1019C16.5891 13.9154 16.6631 13.7365 16.795 13.6047C16.9269 13.4728 17.1057 13.3987 17.2922 13.3987H18.2503C18.3821 13.3988 18.5109 13.3597 18.6205 13.2866C18.73 13.2134 18.8155 13.1093 18.8659 12.9876C18.9163 12.8658 18.9295 12.7319 18.9038 12.6027C18.8781 12.4734 18.8146 12.3547 18.7214 12.2616C18.6597 12.1994 18.5863 12.1502 18.5055 12.1167C18.4246 12.0833 18.3378 12.0662 18.2503 12.0666C18.0638 12.0666 17.885 11.9925 17.7531 11.8606C17.6213 11.7288 17.5472 11.5499 17.5472 11.3634C17.5472 11.177 17.6213 10.9981 17.7531 10.8663C17.885 10.7344 18.0638 10.6603 18.2503 10.6603H19.2089C19.3405 10.6599 19.469 10.6205 19.5782 10.5471C19.6874 10.4738 19.7724 10.3697 19.8226 10.2481C19.8727 10.1264 19.8857 9.99266 19.8599 9.86364C19.8341 9.73463 19.7707 9.61614 19.6777 9.52312C19.6163 9.46122 19.5433 9.41208 19.4628 9.37853C19.3824 9.34498 19.2961 9.32769 19.2089 9.32765H12.5695C12.4472 9.3278 12.3269 9.29602 12.2206 9.23545C12.1143 9.17488 12.0256 9.08761 11.9634 8.98228C11.9011 8.87694 11.8674 8.75718 11.8656 8.63484C11.8638 8.5125 11.894 8.3918 11.9531 8.28469C12.1667 7.85131 12.3122 7.38758 12.3844 6.90984C12.5433 5.88469 12.3473 4.95797 11.8022 4.15547C11.732 4.05551 11.6319 3.98047 11.5162 3.94119C11.4006 3.90192 11.2754 3.90044 11.1589 3.93697C11.0424 3.9735 10.9405 4.04615 10.8679 4.14442C10.7954 4.24268 10.756 4.36146 10.7555 4.48359C10.7784 6.89203 9.66563 8.64234 7.5375 9.54609C7.45218 9.58425 7.3601 9.60502 7.26666 9.60718C7.17322 9.60933 7.08028 9.59284 6.99329 9.55866C6.90629 9.52448 6.82699 9.47329 6.76001 9.4081C6.69303 9.34291 6.63972 9.26501 6.6032 9.17898C6.56668 9.09294 6.54768 9.00048 6.54731 8.90702C6.54694 8.81355 6.56521 8.72095 6.60105 8.63462C6.63689 8.5483 6.68958 8.46999 6.75604 8.40427C6.82251 8.33855 6.9014 8.28674 6.98812 8.25187C7.86562 7.87687 8.505 7.32609 8.88891 6.6075C9.20203 6.02109 9.35766 5.3114 9.34969 4.49812C9.34266 3.60937 9.89062 2.85937 10.7428 2.59406C11.595 2.32875 12.4683 2.63062 12.967 3.36562C14.1253 5.07 13.9162 6.83906 13.5989 7.92234H19.2089C19.6765 7.9224 20.1303 8.0806 20.4967 8.37123C20.863 8.66185 21.1202 9.06783 21.2266 9.52316C21.333 9.9785 21.2823 10.4564 21.0827 10.8793C20.8831 11.3022 20.5463 11.6451 20.1272 11.8523C20.3569 12.3435 20.3853 12.905 20.2062 13.4168C20.0271 13.9286 19.6549 14.35 19.1691 14.5908C19.3989 15.082 19.4273 15.6437 19.2481 16.1556C19.0689 16.6675 18.6965 17.089 18.2105 17.3297C18.3585 17.6455 18.4244 17.9935 18.4022 18.3415C18.38 18.6896 18.2704 19.0264 18.0834 19.3208C17.8965 19.6152 17.6383 19.8578 17.3328 20.0259C17.0272 20.1941 16.6842 20.2824 16.3355 20.2828H16.3336Z" fill="#4067B2"/>
<path d="M7.26563 19.2417H3.24047C3.05399 19.2417 2.87515 19.1676 2.74329 19.0358C2.61142 18.9039 2.53735 18.7251 2.53735 18.5386V8.89969C2.53735 8.71321 2.61142 8.53437 2.74329 8.4025C2.87515 8.27064 3.05399 8.19656 3.24047 8.19656H7.26563C7.45211 8.19656 7.63095 8.27064 7.76281 8.4025C7.89467 8.53437 7.96875 8.71321 7.96875 8.89969V18.5386C7.96875 18.7251 7.89467 18.9039 7.76281 19.0358C7.63095 19.1676 7.45211 19.2417 7.26563 19.2417ZM3.945 17.8355H6.5625V9.60281H3.9436L3.945 17.8355Z" fill="#4067B2"/>
<rect opacity="0.3" x="3.27273" y="8.72728" width="4.36364" height="9.81818" fill="#4067B2"/>
</svg>
