<svg width="68" height="68" viewBox="0 0 68 68" fill="none" xmlns="http://www.w3.org/2000/svg">
<rect x="1" y="1" width="66" height="66" rx="13" fill="#DAA28F" stroke="#434343" stroke-width="2"/>
<path d="M15 27.8041L33.9619 16.173L52.9402 27.8064L53.0266 41.7404L33.9617 41.9016H33.9575H15V27.8041Z" fill="#F2E9D8" stroke="#434343" stroke-width="2"/>
<path d="M46.9672 20.2445V33.6457L33.7131 49.8158L20.459 33.6457V20.2445C20.459 19.5851 21.0022 19.0326 21.694 19.0326H45.7321C46.424 19.0326 46.9672 19.5851 46.9672 20.2445Z" fill="white" stroke="#434343" stroke-width="2"/>
<path d="M15.0043 51L15.0004 29.191L33.3957 43.6677L34.0141 44.1544L34.6325 43.6678L53.0328 29.1904V51H15.0043Z" fill="#F2E9D8" stroke="#434343" stroke-width="2"/>
<path d="M17.5784 51L34.0099 41.0382L50.4524 51H17.5784Z" fill="#F2E9D8" stroke="#434343" stroke-width="2"/>
<path d="M35.0948 23.0406C36.2206 23.0406 37.1959 23.2493 38.0208 23.6666C38.8458 24.0839 39.4766 24.671 39.9133 25.428C40.3597 26.185 40.5829 27.0584 40.5829 28.0483C40.5829 28.8441 40.4422 29.5963 40.1608 30.3047C39.889 31.0132 39.4911 31.5858 38.9671 32.0225C38.443 32.4592 37.8219 32.6776 37.1037 32.6776C36.5991 32.6776 36.1915 32.5757 35.8809 32.3719C35.5703 32.1584 35.3714 31.8575 35.2841 31.4693C35.0026 31.8478 34.6387 32.1487 34.1922 32.3719C33.7458 32.5854 33.2751 32.6921 32.7802 32.6921C32.0426 32.6921 31.4652 32.4738 31.0479 32.0371C30.6305 31.5906 30.4219 30.9841 30.4219 30.2174C30.4219 29.4895 30.5723 28.8102 30.8732 28.1794C31.174 27.5485 31.5913 27.0439 32.1251 26.6654C32.6589 26.2772 33.2606 26.0831 33.9302 26.0831C34.7648 26.0831 35.3374 26.3742 35.648 26.9565L35.779 26.1996H37.4822L36.798 30.13C36.7689 30.3144 36.7543 30.4843 36.7543 30.6396C36.7543 30.8725 36.8029 31.0472 36.8999 31.1636C36.997 31.2801 37.162 31.3383 37.3949 31.3383C37.7442 31.3383 38.0354 31.1733 38.2683 30.8434C38.5109 30.5134 38.6905 30.1009 38.8069 29.606C38.9331 29.111 38.9962 28.6161 38.9962 28.1211C38.9962 26.9468 38.6371 26.0394 37.9189 25.3989C37.2008 24.7487 36.1866 24.4236 34.8764 24.4236C33.7604 24.4236 32.7511 24.6953 31.8485 25.2388C30.946 25.7725 30.2375 26.5053 29.7231 27.4369C29.2185 28.3589 28.9661 29.3876 28.9661 30.5231C28.9661 31.7265 29.3204 32.6533 30.0288 33.3036C30.747 33.9538 31.7612 34.2789 33.0713 34.2789C34.0127 34.2789 34.8425 34.1091 35.5606 33.7694L35.8518 35.1087C34.9298 35.4969 33.906 35.691 32.7802 35.691C31.6932 35.691 30.7421 35.4823 29.9269 35.065C29.1214 34.6574 28.4955 34.0751 28.049 33.3181C27.6026 32.5708 27.3794 31.6925 27.3794 30.6832C27.3794 29.2566 27.7094 27.961 28.3693 26.7964C29.0389 25.6318 29.9609 24.7147 31.1352 24.0451C32.3095 23.3754 33.6294 23.0406 35.0948 23.0406ZM33.4207 31.1782C33.7701 31.1782 34.0903 31.0763 34.3815 30.8725C34.6726 30.6687 34.9007 30.3969 35.0657 30.0573C35.2404 29.7176 35.3277 29.3537 35.3277 28.9655C35.3277 28.5579 35.2161 28.2279 34.9929 27.9756C34.7794 27.7232 34.4688 27.5971 34.0612 27.5971C33.7021 27.5971 33.3867 27.7087 33.115 27.9319C32.8433 28.1454 32.6298 28.4268 32.4745 28.7762C32.3289 29.1256 32.2561 29.4944 32.2561 29.8826C32.2561 30.2805 32.3532 30.5959 32.5473 30.8288C32.7414 31.0617 33.0325 31.1782 33.4207 31.1782Z" fill="#434343"/>
</svg>
