<svg width="68" height="68" viewBox="0 0 68 68" fill="none" xmlns="http://www.w3.org/2000/svg">
<circle cx="34" cy="34" r="22" fill="white" stroke="#434343" stroke-width="2"/>
<rect x="1" y="1" width="66" height="66" rx="13" fill="#DAA28F" stroke="#434343" stroke-width="2"/>
<path fill-rule="evenodd" clip-rule="evenodd" d="M34 13C29.0143 12.9974 24.1905 14.7718 20.3924 18.0053C16.5942 21.2389 14.0698 25.7204 13.2711 30.6475C12.4724 35.5746 13.4517 40.6254 16.0334 44.8956C18.6152 49.1658 22.6309 52.3764 27.3616 53.9525C28.4159 54.148 28.7966 53.5029 28.7966 52.9751C28.7966 52.4474 28.7966 51.1572 28.7966 49.4077C22.9392 50.6783 21.7287 46.5928 21.7287 46.5928C21.3412 45.3001 20.4983 44.1922 19.3564 43.4749C17.4527 42.175 19.5028 42.1946 19.5028 42.1946C20.1678 42.2877 20.8028 42.5316 21.3593 42.9076C21.9159 43.2837 22.3795 43.7819 22.7147 44.3644C24.589 47.58 27.5959 46.6515 28.8259 46.1139C28.923 45.0462 29.3972 44.0481 30.1634 43.299C25.4969 42.7712 20.5962 40.9728 20.5962 32.9192C20.5653 30.8299 21.3418 28.8094 22.7635 27.2796C22.1175 25.468 22.1909 23.4773 22.9685 21.7183C22.9685 21.7183 24.7257 21.1514 28.7381 23.8686C32.1768 22.9302 35.8037 22.9302 39.2424 23.8686C43.2547 21.1514 45.012 21.7183 45.012 21.7183C45.7836 23.4787 45.8569 25.4671 45.217 27.2796C46.636 28.8103 47.4091 30.831 47.3745 32.9192C47.3745 40.9924 42.4933 42.7614 37.7976 43.2892C38.3014 43.8003 38.6895 44.414 38.9354 45.0886C39.1814 45.7632 39.2794 46.4829 39.2229 47.1988C39.2229 50.0039 39.2229 52.2714 39.2229 52.9654C39.2229 53.6593 39.6036 54.1773 40.6677 53.9428C45.3935 52.3605 49.4028 49.1465 51.9785 44.8758C54.5542 40.605 55.5283 35.5561 54.7264 30.6323C53.9245 25.7084 51.3991 21.2307 47.6017 18.0003C43.8044 14.7699 38.983 12.9974 34 13Z" fill="#F2E9D8"/>
<path fill-rule="evenodd" clip-rule="evenodd" d="M26.997 55.919C26.9063 55.9022 26.8169 55.8791 26.7294 55.85C21.5476 54.1235 17.1494 50.6069 14.3219 45.9304C11.4945 41.254 10.4223 35.7229 11.2969 30.3275C12.1715 24.9321 14.936 20.024 19.0959 16.4825C23.2556 12.9411 28.5389 10.9974 34 11C39.4581 10.9974 44.7389 12.939 48.8977 16.477C53.0567 20.0151 55.8223 24.9189 56.7004 30.3108C57.5785 35.7027 56.5119 41.2316 53.6912 45.9087C50.8704 50.5858 46.4792 54.1061 41.3027 55.8393C41.2356 55.8617 41.1674 55.8806 41.0983 55.8959C40.2627 56.0801 39.1736 56.0824 38.2789 55.3494C37.4007 54.6301 37.2229 53.6202 37.2229 52.9654V47.1988C37.2229 47.1463 37.2249 47.0937 37.2291 47.0414C37.263 46.6112 37.2041 46.1789 37.0564 45.7737C36.9087 45.3685 36.6756 45 36.3733 44.6933C35.8357 44.148 35.6567 43.3435 35.9123 42.6217C36.1679 41.8998 36.8132 41.3873 37.5742 41.3018C39.8116 41.0503 41.7163 40.5309 43.0609 39.402C44.3071 38.3557 45.3745 36.5227 45.3745 32.9192L45.3748 32.886C45.4008 31.3132 44.8185 29.7916 43.7503 28.6393C43.2451 28.0944 43.0837 27.3144 43.3311 26.6138C43.6457 25.7226 43.7261 24.7736 43.5754 23.8555C42.8848 24.0713 41.8254 24.5348 40.3638 25.5246C39.8807 25.8517 39.2788 25.9516 38.7159 25.798C35.6219 24.9538 32.3586 24.9538 29.2645 25.798C28.7016 25.9516 28.0997 25.8517 27.6166 25.5246C26.1524 24.533 25.0918 24.0696 24.4013 23.8543C24.2494 24.7708 24.3303 25.7188 24.6473 26.608C24.8979 27.3108 24.7364 28.0946 24.2285 28.6412C23.1578 29.7932 22.5727 31.3152 22.596 32.8896L22.5962 32.9192C22.5962 36.5089 23.666 38.3475 24.9178 39.4012C26.2662 40.5362 28.1714 41.061 30.3881 41.3117C31.1554 41.3985 31.8042 41.9192 32.055 42.6495C32.3057 43.3798 32.1137 44.1892 31.5616 44.729C31.1357 45.1454 30.8718 45.7006 30.8177 46.295C30.7628 46.899 30.438 47.4383 29.946 47.7709C29.9821 47.7963 30.0174 47.8229 30.052 47.8508C30.5229 48.2304 30.7966 48.8028 30.7966 49.4077V52.9751C30.7966 53.6753 30.5488 54.5637 29.8071 55.2264C29.0085 55.94 27.9716 56.0997 26.997 55.919ZM28.7381 23.8686C24.7257 21.1514 22.9685 21.7183 22.9685 21.7183C22.1909 23.4773 22.1175 25.468 22.7635 27.2796C21.3418 28.8094 20.5653 30.8299 20.5962 32.9192C20.5962 39.6657 24.0353 42.0227 27.8947 42.9203C28.6425 43.0942 29.406 43.2134 30.1634 43.299C29.6298 43.8207 29.2378 44.4632 29.0162 45.1659C28.9196 45.4721 28.8554 45.7898 28.8259 46.1139C27.7351 46.5906 25.247 47.3748 23.3905 45.3037C23.1535 45.0393 22.9268 44.7284 22.7147 44.3644C22.3795 43.7819 21.9159 43.2837 21.3593 42.9076C21.1022 42.7339 20.8283 42.5884 20.5425 42.4729C20.4098 42.4193 20.2745 42.3722 20.1371 42.3317C20.1195 42.3265 20.1018 42.3214 20.0842 42.3164C19.8938 42.2629 19.6997 42.2221 19.5028 42.1946C19.5028 42.1946 17.4745 42.1752 19.3263 43.4543C19.3362 43.4611 19.3463 43.468 19.3564 43.4749C19.4014 43.5032 19.4459 43.5321 19.49 43.5615C19.6512 43.6694 19.806 43.7851 19.9541 43.9082C20.1113 44.039 20.2609 44.178 20.4022 44.3245C20.6805 44.6131 20.9268 44.9309 21.1368 45.2723C21.1386 45.2752 21.1404 45.2781 21.1421 45.281C21.345 45.612 21.5138 45.9652 21.6446 46.3352C21.6746 46.4202 21.7027 46.5061 21.7287 46.5928C21.7287 46.5928 22.6533 49.7134 26.7966 49.6518C27.3941 49.6429 28.0585 49.5678 28.7966 49.4077V52.9751C28.7966 53.5029 28.4159 54.148 27.3616 53.9525C22.631 52.3764 18.6152 49.1658 16.0334 44.8956C13.4517 40.6254 12.4724 35.5746 13.2711 30.6475C14.0698 25.7204 16.5942 21.2389 20.3924 18.0053C24.1905 14.7718 29.0143 12.9974 34 13C38.983 12.9974 43.8044 14.7699 47.6017 18.0003C51.3991 21.2307 53.9245 25.7084 54.7264 30.6323C55.5283 35.5561 54.5543 40.605 51.9785 44.8758C49.4028 49.1465 45.3935 52.3605 40.6677 53.9428C39.6036 54.1773 39.2229 53.6593 39.2229 52.9654V47.1988C39.2775 46.5063 39.1876 45.8103 38.9591 45.155C38.9514 45.1328 38.9435 45.1107 38.9354 45.0886C38.6895 44.414 38.3014 43.8003 37.7976 43.2892C38.5543 43.2042 39.3159 43.0869 40.061 42.9162C43.9398 42.0275 47.3745 39.6913 47.3745 32.9192C47.4091 30.831 46.636 28.8103 45.217 27.2796C45.8569 25.4671 45.7836 23.4787 45.012 21.7183C45.012 21.7183 43.2547 21.1514 39.2424 23.8686C35.8037 22.9302 32.1768 22.9302 28.7381 23.8686Z" fill="#434343"/>
</svg>
