<svg width="67" height="66" viewBox="0 0 67 66" fill="none" xmlns="http://www.w3.org/2000/svg">
<path d="M1 12C1 5.92487 5.92487 1 12 1H55C61.0751 1 66 5.92487 66 12V54C66 60.0751 61.0751 65 55 65H12C5.92487 65 1 60.0751 1 54V12Z" fill="#DAA28F" stroke="#434343" stroke-width="2"/>
<path d="M48 47C48.5523 47 49 46.5523 49 46V33.7593C49 30.9824 48.2096 28.7833 46.7341 27.276C45.258 25.7681 43.2171 25.076 40.9633 25.076C38.8144 25.076 37.221 25.8519 36.1341 26.6919V26.6667C36.1341 26.1144 35.6864 25.6667 35.1341 25.6667H29.3917C28.8394 25.6667 28.3917 26.1144 28.3917 26.6667V46C28.3917 46.5523 28.8394 47 29.3917 47H35.1341C35.6864 47 36.1341 46.5523 36.1341 46V35.8512C36.1341 34.6277 36.4175 33.8015 36.8317 33.298C37.2207 32.8251 37.8257 32.5137 38.7817 32.5137C39.6195 32.5137 40.1099 32.792 40.4308 33.23C40.7914 33.7222 41.0414 34.5596 41.0414 35.8512V46C41.0414 46.5523 41.4891 47 42.0414 47H48ZM18.5758 46C18.5758 46.5523 19.0236 47 19.5758 47H25.5637C26.116 47 26.5637 46.5523 26.5637 46V26.6667C26.5637 26.1144 26.116 25.6667 25.5637 25.6667H19.5758C19.0236 25.6667 18.5758 26.1144 18.5758 26.6667V46ZM18 20.5676C18 23.0828 20.0256 25.1351 22.541 25.1351C25.0567 25.1351 27.081 23.0825 27.081 20.5676C27.081 18.0527 25.0567 16 22.541 16C20.0256 16 18 18.0523 18 20.5676Z" fill="#F2E9D8" stroke="#434343" stroke-width="2" stroke-linejoin="round"/>
</svg>
