<svg width="68" height="68" viewBox="0 0 68 68" fill="none" xmlns="http://www.w3.org/2000/svg">
<rect x="1" y="1" width="66" height="66" rx="13" fill="#DAA28F" stroke="#434343" stroke-width="2"/>
<path d="M49.0522 31.996L48.4725 41.3189C47.6672 41.3189 26.3793 35.3951 26.1575 36.1693L21.8661 51.0679C21.6573 51.8023 16.962 52.3335 16.2655 52.3335C15.5696 52.3335 15 51.7639 15 51.0679V46.2253V26.3857V25.4378V22.533C15 21.5592 15.7895 20.7697 16.7633 20.7697H29.2918C29.7594 20.7697 30.2077 20.9554 30.5383 21.286L34.1733 24.921C34.5039 25.2516 34.9526 25.4373 35.4198 25.4373H47.2889C48.2627 25.4373 49.0522 26.2268 49.0522 27.2006V27.8031V31.996Z" fill="#F2E9D8"/>
<path fill-rule="evenodd" clip-rule="evenodd" d="M21.8661 51.0679L26.1575 36.1693C26.3053 35.6533 35.8094 38.1122 42.3717 39.81C43.9855 40.2275 45.4215 40.5991 46.4966 40.869C47.5384 41.1305 48.2414 41.2967 48.4391 41.3168C48.4526 41.3182 48.4637 41.3189 48.4725 41.3189L49.0522 31.996V27.2006C49.0522 26.2268 48.2627 25.4373 47.2889 25.4373H35.4198C34.9526 25.4373 34.5039 25.2516 34.1733 24.921L30.5383 21.286C30.2077 20.9554 29.7594 20.7697 29.2918 20.7697H16.7633C15.7895 20.7697 15 21.5592 15 22.533V51.0679C15 51.7639 15.5696 52.3335 16.2655 52.3335C16.962 52.3335 21.6573 51.8023 21.8661 51.0679ZM47.0522 31.9339L46.6229 38.8382C46.1885 38.7283 45.703 38.6041 45.1753 38.4684C44.4746 38.2882 43.7008 38.088 42.8795 37.8755C41.238 37.4509 39.4067 36.9771 37.5885 36.5153C34.8614 35.8227 32.1268 35.1477 30.0522 34.6936C29.0225 34.4681 28.1127 34.2876 27.4345 34.1891C27.109 34.1418 26.7574 34.1012 26.446 34.0996C26.3064 34.0989 26.0471 34.1036 25.7616 34.1737C25.619 34.2087 25.3625 34.2851 25.0898 34.4632C24.801 34.6517 24.4078 35.0162 24.2352 35.6171C24.2351 35.6176 24.235 35.618 24.2348 35.6185L20.1685 49.736C19.8334 49.8274 19.3975 49.9199 18.9049 50.0059C18.308 50.11 17.6898 50.194 17.1802 50.2517C17.118 50.2587 17.0579 50.2653 17 50.2715V22.7697H29.1936L32.7591 26.3352C33.465 27.0411 34.4225 27.4373 35.4198 27.4373H47.0522V31.9339Z" fill="#434343"/>
<path d="M45.0394 22.6475V47.4717C45.0394 48.1026 44.5137 48.6142 43.8655 48.6142H21.3236C20.6754 48.6142 20.1497 48.1026 20.1497 47.4717V17.1424C20.1497 16.5116 20.6754 16 21.3236 16H38.208C39.3464 18.7578 41.6752 20.9494 45.0394 22.6475Z" fill="white"/>
<path fill-rule="evenodd" clip-rule="evenodd" d="M45.0394 22.6475C41.6752 20.9494 39.3464 18.7578 38.208 16H21.3236C20.6754 16 20.1497 16.5116 20.1497 17.1424V47.4717C20.1497 48.1026 20.6754 48.6142 21.3236 48.6142H43.8655C44.5137 48.6142 45.0394 48.1026 45.0394 47.4717V22.6475ZM36.9533 18C38.2781 20.4036 40.3834 22.3234 43.0394 23.8426V46.6142H22.1497V18H36.9533Z" fill="#434343"/>
<path d="M45.0395 23.7244H37.8007C37.0585 23.7244 36.4568 23.1828 36.4568 22.5148V16C36.4568 16 36.4568 16 38.1733 16C39.8899 16 45.0395 20.111 45.0395 22.0079C45.0395 23.9048 45.0395 23.7244 45.0395 23.7244Z" fill="white"/>
<path fill-rule="evenodd" clip-rule="evenodd" d="M45.0058 21.7244C44.5833 19.8362 40.2975 16.3885 38.4568 16.0303C38.3544 16.0104 38.2595 16 38.1733 16H36.4568V22.5148C36.4568 23.1828 37.0585 23.7244 37.8007 23.7244H45.0395C45.0395 23.7244 45.0395 23.7695 45.0395 23.5775V22.0079C45.0395 21.9181 45.0279 21.8234 45.0058 21.7244ZM45.0395 24.618C44.4287 24.6372 43.7342 24.4256 43.0395 23.7323L43.0395 23.7295V23.7284M38.4568 18.137C38.6036 18.2042 38.7774 18.2935 38.9758 18.4072C39.5782 18.7524 40.2851 19.2526 40.9618 19.8224C41.642 20.3952 42.232 20.9884 42.6321 21.5003C42.6951 21.5809 42.7503 21.6557 42.7985 21.7244H38.4568V18.137Z" fill="#434343"/>
<path d="M39.5317 26.5324H24.3254C23.9416 26.5324 23.6309 26.2216 23.6309 25.8378C23.6309 25.4539 23.9416 25.1432 24.3254 25.1432H39.5317C39.9151 25.1432 40.2263 25.4539 40.2263 25.8378C40.2263 26.2216 39.9151 26.5324 39.5317 26.5324Z" fill="#BBB9B9"/>
<path fill-rule="evenodd" clip-rule="evenodd" d="M24.3254 25.1432C23.9416 25.1432 23.6309 25.4539 23.6309 25.8378C23.6309 26.2216 23.9416 26.5324 24.3254 26.5324H39.5317C39.9151 26.5324 40.2263 26.2216 40.2263 25.8378C40.2263 25.4539 39.9151 25.1432 39.5317 25.1432H24.3254Z" fill="#434343"/>
<path d="M39.5317 29.7737H24.3254C23.9416 29.7737 23.6309 29.463 23.6309 29.0791C23.6309 28.6953 23.9416 28.3846 24.3254 28.3846H39.5317C39.9151 28.3846 40.2263 28.6953 40.2263 29.0791C40.2263 29.463 39.9151 29.7737 39.5317 29.7737Z" fill="#BBB9B9"/>
<path fill-rule="evenodd" clip-rule="evenodd" d="M24.3254 28.3846C23.9416 28.3846 23.6309 28.6953 23.6309 29.0791C23.6309 29.463 23.9416 29.7737 24.3254 29.7737H39.5317C39.9151 29.7737 40.2263 29.463 40.2263 29.0791C40.2263 28.6953 39.9151 28.3846 39.5317 28.3846H24.3254Z" fill="#434343"/>
<path d="M16.2656 52.3333C16.9616 52.3333 17.3223 51.8022 17.5312 51.0678L22.6229 33.304C22.8447 32.5298 23.5527 31.9963 24.3585 31.9963H55.5587C56.3038 31.9963 56.8391 32.7122 56.6288 33.4272L51.5834 50.5723C51.3555 51.3831 50.8559 52.3402 49.8224 52.3333H16.2656Z" fill="#F2E9D8"/>
<path fill-rule="evenodd" clip-rule="evenodd" d="M51.5834 50.5723L56.6288 33.4272C56.8391 32.7122 56.3038 31.9963 55.5587 31.9963H24.3585C23.5527 31.9963 22.8447 32.5298 22.6229 33.304L17.5312 51.0678C17.3223 51.8022 16.9616 52.3333 16.2656 52.3333H49.8224C50.8559 52.3402 51.3555 51.3831 51.5834 50.5723ZM19.8222 50.3333H49.5503C49.5884 50.2497 49.6253 50.1474 49.6579 50.0313L49.6613 50.0195L54.3765 33.9963H24.505L19.8222 50.3333ZM24.5455 33.8551C24.5455 33.855 24.5455 33.8551 24.5455 33.8551Z" fill="#434343"/>
</svg>
