<svg width="67" height="66" viewBox="0 0 67 66" fill="none" xmlns="http://www.w3.org/2000/svg">
<path d="M1 12C1 5.92487 5.92487 1 12 1H55C61.0751 1 66 5.92487 66 12V54C66 60.0751 61.0751 65 55 65H12C5.92487 65 1 60.0751 1 54V12Z" fill="#DAA28F" stroke="#434343" stroke-width="2"/>
<path d="M45 25.8658V48H23V25.8658V22.1767C23 15.3615 28.0108 10 34 10C39.9892 10 45 15.3615 45 22.1767V25.8658Z" fill="#F2E9D8" stroke="#434343" stroke-width="2"/>
<path d="M38.7782 36.812C38.7782 39.2114 40.4863 41.2471 42.8248 41.7599L52 47.6507V54.3359C52 54.6783 51.7079 55 51.2917 55H45.4165H34.0008H22.5842H16.709C16.2929 55 16.0005 54.6782 16 54.3361V47.6514L25.1751 41.76C27.5148 41.2479 29.2218 39.211 29.2218 36.812V36H38.7782V36.812Z" fill="white" stroke="#434343" stroke-width="2"/>
<path d="M43.4652 29.7111L43.4652 29.7112C43.3506 30.9244 43 32.0895 42.4458 33.1675C42.1456 33.7507 41.7861 34.3083 41.3719 34.8341C40.9574 35.3592 40.4882 35.8522 39.9698 36.3065C38.7535 37.3705 37.2645 38.219 35.5732 38.7598C34.5707 39.0801 33.4685 39.0801 32.4659 38.7598C27.9866 37.3287 24.9565 33.7586 24.5732 29.7112C24.5732 29.7111 24.5732 29.7111 24.5732 29.711L24.087 24.5688C30.0942 23.7927 34.6859 22.5855 37.6616 20.3519C39.5354 22.1962 41.3365 23.4233 43.9389 24.706L43.4652 29.7111Z" fill="white" stroke="#434343" stroke-width="2"/>
<path d="M46.43 52.0262L46.4299 52.0263C45.8777 52.533 45.3592 53.0596 44.991 53.7014C44.7604 54.1035 44.5998 54.5302 44.5084 55H34.0008H23.493C23.4013 54.5299 23.2404 54.1031 23.0094 53.7009C22.6409 53.0593 22.1221 52.5328 21.5701 52.0263L21.57 52.0262L16 46.9163V46.6502C16 44.3233 17.6318 42.3502 19.8476 41.9376C19.8476 41.9376 19.8477 41.9376 19.8477 41.9376L23.2667 41.3014C23.7394 41.2134 24.2756 41.4864 24.5198 42.0285C25.734 44.7234 27.5967 47.3254 29.3268 49.2538C30.1929 50.2193 31.0448 51.0372 31.7883 51.6232C32.1589 51.9153 32.5214 52.1647 32.8597 52.346C33.1694 52.5119 33.5752 52.6855 34 52.6855C34.4248 52.6855 34.8306 52.5119 35.1403 52.346C35.4786 52.1647 35.8411 51.9153 36.2117 51.6232C36.9552 51.0372 37.8071 50.2193 38.6732 49.2538C40.4033 47.3254 42.266 44.7234 43.4802 42.0285C43.7244 41.4864 44.2606 41.2134 44.7333 41.3014L48.1523 41.9376C48.1523 41.9376 48.1524 41.9376 48.1524 41.9376C50.3682 42.3501 52 44.3233 52 46.6502V46.9163L46.43 52.0262Z" fill="#F2E9D8" stroke="#434343" stroke-width="2"/>
</svg>
