<svg width="9" height="9" viewBox="0 0 9 9" fill="none" xmlns="http://www.w3.org/2000/svg">
<path d="M4.42505 0C2.56121 0 1.05005 1.51116 1.05005 3.375C1.05005 4.10892 1.29066 4.78237 1.6906 5.33391C1.69777 5.34713 1.69889 5.36189 1.70705 5.37455L3.95705 8.74955C4.06139 8.90606 4.23717 9 4.42505 9C4.61292 9 4.7887 8.90606 4.89305 8.74955L7.14305 5.37455C7.15135 5.36189 7.15233 5.34713 7.1595 5.33391C7.55944 4.78237 7.80005 4.10892 7.80005 3.375C7.80005 1.51116 6.28889 0 4.42505 0ZM4.42505 4.5C3.80377 4.5 3.30005 3.99628 3.30005 3.375C3.30005 2.75372 3.80377 2.25 4.42505 2.25C5.04633 2.25 5.55005 2.75372 5.55005 3.375C5.55005 3.99628 5.04633 4.5 4.42505 4.5Z" fill="#434343" fill-opacity="0.8"/>
</svg>
