<svg width="9" height="9" viewBox="0 0 9 9" fill="none" xmlns="http://www.w3.org/2000/svg">
<g clip-path="url(#clip0_1032_109)">
<path d="M7.94531 2.10938H6.60938C6.60938 0.944402 5.66497 0 4.5 0C3.33503 0 2.39062 0.944402 2.39062 2.10938H1.05469C0.472201 2.10938 0 2.58158 0 3.16406V7.94531C0 8.5278 0.472201 9 1.05469 9H7.94531C8.5278 9 9 8.5278 9 7.94531V3.16406C9 2.58158 8.5278 2.10938 7.94531 2.10938ZM4.5 1.05469C5.08249 1.05469 5.55469 1.52689 5.55469 2.10938H3.44531C3.44531 1.52689 3.91751 1.05469 4.5 1.05469ZM7.06641 4.57031V4.92188C7.06641 5.21313 6.83031 5.44922 6.53906 5.44922C6.24781 5.44922 6.01172 5.21313 6.01172 4.92188V4.57031H2.98828V4.92188C2.98828 5.21313 2.75219 5.44922 2.46094 5.44922C2.16969 5.44922 1.93359 5.21313 1.93359 4.92188V4.57031C1.64234 4.57031 1.40625 4.33422 1.40625 4.04297C1.40625 3.75172 1.64234 3.51562 1.93359 3.51562H7.06641C7.35766 3.51562 7.59375 3.75172 7.59375 4.04297C7.59375 4.33422 7.35766 4.57031 7.06641 4.57031Z" fill="#434343" fill-opacity="0.8" stroke="#434343" stroke-opacity="0.8" stroke-width="0.125"/>
</g>
<defs>
<clipPath id="clip0_1032_109">
<rect width="9" height="9" fill="white"/>
</clipPath>
</defs>
</svg>
