<svg width="28" height="16" viewBox="0 0 28 16" fill="none" xmlns="http://www.w3.org/2000/svg">
<path d="M20.9132 1.00003V1H20.906H3.60015C3.60014 1 3.60013 1 3.60012 1C2.92303 0.999989 2.26784 1.25973 1.77877 1.73128C1.28873 2.20377 1.00528 2.85152 1.00003 3.53512L1 3.53512V3.5428V12.0456C1 12.0456 1 12.0456 1 12.0456C0.999988 12.7292 1.27845 13.3791 1.76497 13.8553C2.25054 14.3306 2.90384 14.5951 3.58093 14.6L3.58093 14.6H3.58818L20.906 14.6L20.9132 14.6C21.587 14.5951 22.2374 14.3331 22.7223 13.8621C23.2082 13.39 23.4889 12.7451 23.4941 12.0649H23.4941V12.0572V11.12H25.8824C26.4347 11.12 26.8824 10.6723 26.8824 10.12V5.48C26.8824 4.92772 26.4347 4.48 25.8824 4.48H23.4941L23.4942 3.5428L23.4941 3.53515C23.4889 2.8549 23.2082 2.20997 22.7223 1.73795C22.2373 1.26685 21.587 1.00489 20.9132 1.00003Z" fill="#ECBE72" stroke="#434343" stroke-width="2" stroke-linejoin="round"/>
</svg>
