<svg width="26" height="20" viewBox="0 0 26 20" fill="none" xmlns="http://www.w3.org/2000/svg">
<path d="M2 15C2 14.4477 2.44772 14 3 14H5C5.55228 14 6 14.4477 6 15V17C6 17.5523 5.55228 18 5 18H3C2.44772 18 2 17.5523 2 17V15Z" fill="#ECBE72"/>
<path d="M8 11C8 10.4477 8.44771 10 9 10H11C11.5523 10 12 10.4477 12 11V17C12 17.5523 11.5523 18 11 18H9C8.44771 18 8 17.5523 8 17V11Z" fill="#ECBE72"/>
<path d="M14 7C14 6.44772 14.4477 6 15 6H17C17.5523 6 18 6.44772 18 7V17C18 17.5523 17.5523 18 17 18H15C14.4477 18 14 17.5523 14 17V7Z" fill="#ECBE72"/>
<path d="M20 3C20 2.44772 20.4477 2 21 2H23C23.5523 2 24 2.44772 24 3V17C24 17.5523 23.5523 18 23 18H21C20.4477 18 20 17.5523 20 17V3Z" fill="#ECBE72"/>
<path fill-rule="evenodd" clip-rule="evenodd" d="M3 12H5C5.35064 12 5.68722 12.0602 6 12.1707V11C6 9.34315 7.34315 8 9 8H11C11.3506 8 11.6872 8.06015 12 8.17071V7C12 5.34315 13.3431 4 15 4H17C17.3506 4 17.6872 4.06015 18 4.17071V3C18 1.34315 19.3431 0 21 0H23C24.6569 0 26 1.34315 26 3V17C26 18.6569 24.6569 20 23 20H21C20.2316 20 19.5308 19.7111 19 19.2361C18.4692 19.7111 17.7684 20 17 20H15C14.2316 20 13.5308 19.7111 13 19.2361C12.4692 19.7111 11.7684 20 11 20H9C8.23164 20 7.53076 19.7111 7 19.2361C6.46924 19.7111 5.76836 20 5 20H3C1.34315 20 0 18.6569 0 17V15C0 13.3431 1.34315 12 3 12ZM14 17.0012C14.0007 17.5529 14.4481 18 15 18H17C17.5523 18 18 17.5523 18 17V7C18 6.99954 18 6.99907 18 6.9986C17.9992 6.44696 17.5518 6 17 6H15C14.4477 6 14 6.44772 14 7V10.9976C14 10.9984 14 10.9992 14 11V17C14 17.0004 14 17.0008 14 17.0012ZM20 6.99658C20 6.99772 20 6.99886 20 7V17C20 17.5523 20.4477 18 21 18H23C23.5523 18 24 17.5523 24 17V3C24 2.44772 23.5523 2 23 2H21C20.4477 2 20 2.44772 20 3V6.99658ZM12 10.9986C11.9992 10.447 11.5518 10 11 10H9C8.44772 10 8 10.4477 8 11V14.9983C8 14.9989 8 14.9994 8 15V17C8 17.5523 8.44772 18 9 18H11C11.5523 18 12 17.5523 12 17V11C12 10.9995 12 10.9991 12 10.9986ZM6 14.999C5.99947 14.4472 5.55196 14 5 14H3C2.44772 14 2 14.4477 2 15V17C2 17.5523 2.44772 18 3 18H5C5.55228 18 6 17.5523 6 17V15C6 14.9997 6 14.9993 6 14.999Z" fill="#434343"/>
</svg>
